<svg xmlns="http://www.w3.org/2000/svg" xmlns:xlink="http://www.w3.org/1999/xlink" width="500" zoomAndPan="magnify" viewBox="0 0 375 374.999991" height="500" preserveAspectRatio="xMidYMid meet" version="1.2"><defs><clipPath id="05d2057119"><path d="M 192 128 L 233 128 L 233 157 L 192 157 Z M 192 128 "/></clipPath><clipPath id="87a7c464d3"><path d="M 233.988281 110.246094 L 259.214844 153.757812 L 213.285156 180.382812 L 188.058594 136.871094 Z M 233.988281 110.246094 "/></clipPath><clipPath id="ff52bb60f4"><path d="M 233.988281 110.246094 L 259.214844 153.757812 L 213.285156 180.382812 L 188.058594 136.871094 Z M 233.988281 110.246094 "/></clipPath><clipPath id="a59b6a52b9"><path d="M 214 133 L 255 133 L 255 162 L 214 162 Z M 214 133 "/></clipPath><clipPath id="79a8c2d255"><path d="M 233.988281 110.246094 L 259.214844 153.757812 L 213.285156 180.382812 L 188.058594 136.871094 Z M 233.988281 110.246094 "/></clipPath><clipPath id="c396fbf53a"><path d="M 233.988281 110.246094 L 259.214844 153.757812 L 213.285156 180.382812 L 188.058594 136.871094 Z M 233.988281 110.246094 "/></clipPath></defs><g id="fec89d9e9f"><path style=" stroke:none;fill-rule:nonzero;fill:#0078c1;fill-opacity:1;" d="M 285.199219 128.125 C 285.554688 130.398438 283.632812 132.402344 280.945312 132.519531 L 232.722656 141.167969 C 229.824219 141.285156 227.164062 139.515625 226.78125 137.09375 L 217.53125 79.117188 C 217.089844 76.488281 219.21875 74.335938 222.261719 74.363281 L 273.496094 81.652344 C 276.304688 81.683594 278.726562 83.71875 279.023438 86.136719 Z M 285.199219 128.125 "/><path style=" stroke:none;fill-rule:nonzero;fill:#0078c1;fill-opacity:1;" d="M 216.261719 133.582031 C 217.121094 137.832031 213.542969 141.492188 208.226562 141.757812 L 109.949219 159.136719 C 103.832031 159.488281 97.773438 156.125 96.472656 151.550781 L 64.03125 34.679688 C 62.40625 29.074219 66.867188 24.675781 73.867188 25.03125 L 187.277344 43.828125 C 193.039062 44.0625 198.328125 48.222656 199.242188 53.089844 Z M 216.261719 133.582031 "/><path style=" stroke:none;fill-rule:nonzero;fill:#009bdc;fill-opacity:1;" d="M 343.910156 222.984375 C 344.089844 224.402344 342.816406 225.730469 341.074219 225.9375 L 310.109375 233.753906 C 308.304688 233.992188 306.652344 233.019531 306.472656 231.570312 L 302.101562 197.078125 C 301.894531 195.546875 303.253906 194.128906 305.113281 193.980469 L 337.085938 195.25 C 338.828125 195.101562 340.394531 196.164062 340.542969 197.640625 Z M 343.910156 222.984375 "/><path style=" stroke:none;fill-rule:nonzero;fill:#009bdc;fill-opacity:1;" d="M 307.773438 132.550781 C 307.949219 134.171875 306.589844 135.589844 304.730469 135.679688 L 271.164062 141.875 C 269.214844 141.992188 267.410156 140.722656 267.203125 139.042969 L 262.179688 98.707031 C 261.972656 96.90625 263.421875 95.402344 265.460938 95.375 L 300.238281 99.828125 C 302.160156 99.828125 303.84375 101.214844 304.019531 102.925781 Z M 307.773438 132.550781 "/><path style=" stroke:none;fill-rule:nonzero;fill:#009bdc;fill-opacity:1;" d="M 311.261719 179.316406 C 311.40625 180.820312 310.109375 182.207031 308.335938 182.355469 L 276.273438 189.496094 C 274.382812 189.675781 272.699219 188.582031 272.550781 187.046875 L 267.882812 150.105469 C 267.675781 148.453125 269.09375 146.980469 271.042969 146.890625 L 304.140625 149.515625 C 305.972656 149.429688 307.566406 150.636719 307.742188 152.203125 Z M 311.261719 179.316406 "/><path style=" stroke:none;fill-rule:nonzero;fill:#0078c1;fill-opacity:1;" d="M 305.675781 277.691406 C 305.910156 279.28125 304.316406 280.933594 302.1875 281.320312 L 263.835938 292.828125 C 261.589844 293.238281 259.519531 292.234375 259.253906 290.582031 L 253.199219 250.484375 C 252.871094 248.714844 254.617188 246.945312 256.949219 246.621094 L 296.957031 245.851562 C 299.144531 245.558594 301.035156 246.707031 301.273438 248.421875 Z M 305.675781 277.691406 "/><path style=" stroke:none;fill-rule:nonzero;fill:#0078c1;fill-opacity:1;" d="M 281.269531 229.003906 C 281.445312 230.125 280.410156 231.1875 278.992188 231.394531 L 253.640625 237.886719 C 252.132812 238.09375 250.804688 237.324219 250.628906 236.203125 L 246.519531 209.207031 C 246.34375 207.996094 247.40625 206.875 248.941406 206.757812 L 275.035156 207.257812 C 276.480469 207.113281 277.78125 207.9375 277.898438 209.089844 Z M 281.269531 229.003906 "/><path style=" stroke:none;fill-rule:nonzero;fill:#0078c1;fill-opacity:1;" d="M 224.242188 228.710938 C 224.773438 231.128906 222.496094 233.429688 219.277344 233.875 L 160.355469 248.390625 C 156.8125 248.863281 153.414062 247.210938 152.761719 244.671875 L 137.425781 182.945312 C 136.6875 180.113281 139.257812 177.515625 143.042969 177.25 L 207.21875 179.996094 C 210.675781 179.789062 213.78125 181.707031 214.3125 184.332031 Z M 224.242188 228.710938 "/><path style=" stroke:none;fill-rule:nonzero;fill:#009bdc;fill-opacity:1;" d="M 264.011719 170.789062 C 264.425781 173.445312 262.152344 175.863281 258.839844 176.128906 L 198.738281 188.730469 C 195.105469 189.054688 191.707031 187.046875 191.117188 184.246094 L 177.375 115.289062 C 176.726562 112.132812 179.386719 109.417969 183.285156 109.386719 L 248.410156 116.292969 C 251.898438 116.203125 255 118.503906 255.414062 121.457031 Z M 264.011719 170.789062 "/><path style=" stroke:none;fill-rule:nonzero;fill:#009bdc;fill-opacity:1;" d="M 170.316406 161.082031 C 171.171875 164.683594 168.039062 167.929688 163.253906 168.28125 L 75.316406 184.921875 C 69.851562 185.367188 64.503906 182.621094 63.230469 178.757812 L 32.679688 81.652344 C 31.140625 77.078125 34.953125 73.242188 41.039062 73.332031 L 141.652344 85.726562 C 146.824219 85.695312 151.699219 89.089844 152.675781 93.160156 Z M 170.316406 161.082031 "/><path style=" stroke:none;fill-rule:nonzero;fill:#009bdc;fill-opacity:1;" d="M 217.324219 288.402344 C 218.09375 291.824219 214.753906 295.335938 209.820312 296.25 L 118.132812 322.894531 C 112.371094 323.953125 106.84375 321.890625 105.664062 318.261719 L 76.5 226.054688 C 75.019531 221.6875 79.160156 217.496094 85.539062 216.847656 L 190.320312 217.761719 C 195.726562 217.171875 200.632812 219.945312 201.488281 223.871094 Z M 217.324219 288.402344 "/><path style=" stroke:none;fill-rule:nonzero;fill:#0078c1;fill-opacity:1;" d="M 161.921875 325.84375 C 162.574219 327.996094 160.355469 330.269531 156.988281 330.949219 L 96.53125 349.359375 C 92.867188 350.097656 89.265625 348.917969 88.496094 346.675781 L 69.703125 292.175781 C 68.785156 289.699219 71.296875 287.101562 75.257812 286.542969 L 141.890625 283.265625 C 145.496094 282.734375 148.832031 284.210938 149.484375 286.511719 Z M 161.921875 325.84375 "/><g clip-rule="nonzero" clip-path="url(#05d2057119)"><g clip-rule="nonzero" clip-path="url(#87a7c464d3)"><g clip-rule="nonzero" clip-path="url(#ff52bb60f4)"><path style=" stroke:none;fill-rule:evenodd;fill:#ffffff;fill-opacity:1;" d="M 227.574219 149.894531 C 226.566406 149.6875 225.753906 149.097656 225.222656 148.300781 C 224.738281 147.554688 224.503906 146.636719 224.644531 145.710938 C 224.652344 145.679688 225.296875 143.429688 224.023438 141.257812 C 223.210938 139.878906 221.699219 138.765625 220.039062 138.417969 C 219.15625 138.234375 207.554688 135.847656 207.554688 135.847656 C 205.941406 135.515625 204.324219 135.859375 203.042969 136.710938 C 201.761719 137.550781 200.792969 138.886719 200.464844 140.507812 C 200.136719 142.125 200.492188 143.730469 201.335938 145.007812 C 202.179688 146.285156 203.519531 147.25 205.144531 147.589844 L 212.964844 149.199219 C 213.363281 151.023438 214.089844 152.746094 215.097656 154.285156 C 215.71875 155.226562 216.445312 156.101562 217.273438 156.890625 C 217.210938 156.871094 203.007812 153.957031 203.007812 153.957031 C 199.582031 153.246094 196.777344 151.230469 194.988281 148.523438 C 193.199219 145.8125 192.453125 142.429688 193.152344 139.015625 C 193.855469 135.597656 195.886719 132.785156 198.597656 130.996094 C 201.300781 129.207031 204.679688 128.449219 208.105469 129.164062 L 222.179688 132.058594 C 225.59375 132.761719 228.398438 134.785156 230.183594 137.492188 C 231.964844 140.199219 232.71875 143.582031 232.019531 147.003906 C 231.761719 148.265625 231.316406 149.449219 230.714844 150.550781 Z M 227.574219 149.894531 "/></g></g></g><g clip-rule="nonzero" clip-path="url(#a59b6a52b9)"><g clip-rule="nonzero" clip-path="url(#79a8c2d255)"><g clip-rule="nonzero" clip-path="url(#c396fbf53a)"><path style=" stroke:none;fill-rule:evenodd;fill:#ffffff;fill-opacity:1;" d="M 229.894531 133.644531 C 230.714844 134.421875 231.441406 135.296875 232.054688 136.242188 C 233.070312 137.78125 233.804688 139.503906 234.199219 141.339844 L 242.019531 142.945312 C 243.640625 143.269531 244.976562 144.238281 245.816406 145.507812 C 246.660156 146.785156 247.019531 148.402344 246.6875 150.019531 C 246.371094 151.574219 245.460938 152.9375 244.125 153.816406 C 242.789062 154.6875 241.179688 155 239.617188 154.679688 L 227.125 152.117188 C 226.730469 152.027344 224.617188 151.472656 223.332031 149.539062 C 221.921875 147.425781 222.410156 145.808594 222.527344 144.792969 C 222.652344 143.765625 222.429688 142.976562 221.941406 142.222656 C 221.417969 141.429688 220.59375 140.84375 219.597656 140.636719 L 216.46875 139.992188 C 215.863281 141.078125 215.402344 142.257812 215.144531 143.53125 C 214.433594 146.949219 215.183594 150.324219 216.96875 153.039062 C 218.761719 155.75 221.574219 157.769531 224.988281 158.476562 L 239.066406 161.363281 C 242.355469 162.039062 245.707031 161.460938 248.523438 159.574219 C 251.300781 157.699219 253.324219 154.8125 254 151.523438 C 254.695312 148.101562 253.945312 144.726562 252.167969 142.011719 C 250.371094 139.304688 247.582031 137.273438 244.15625 136.574219 C 244.15625 136.574219 229.957031 133.65625 229.894531 133.644531 Z M 229.894531 133.644531 "/></g></g></g></g></svg>