<svg width="582" height="667" viewBox="0 0 582 667" fill="none" xmlns="http://www.w3.org/2000/svg">
<g filter="url(#filter0_d_8_129)">
<rect x="14" y="12" width="317" height="351" rx="10" fill="white"/>
</g>
<g filter="url(#filter1_d_8_129)">
<rect x="110" y="299" width="129" height="36" rx="10" fill="#1447E6"/>
</g>
<path d="M128.64 322H126.333L129.848 311.818H132.622L136.132 322H133.825L131.275 314.145H131.195L128.64 322ZM128.496 317.998H133.945V319.678H128.496V317.998ZM139.776 322.124C139.196 322.124 138.671 321.975 138.2 321.677C137.733 321.375 137.362 320.933 137.087 320.349C136.815 319.763 136.679 319.044 136.679 318.192C136.679 317.317 136.82 316.589 137.102 316.009C137.383 315.426 137.758 314.99 138.225 314.702C138.696 314.41 139.211 314.264 139.771 314.264C140.199 314.264 140.555 314.337 140.84 314.483C141.129 314.625 141.361 314.804 141.536 315.02C141.715 315.232 141.851 315.441 141.944 315.646H142.009V311.818H144.121V322H142.033V320.777H141.944C141.844 320.989 141.704 321.2 141.521 321.408C141.342 321.614 141.109 321.785 140.82 321.92C140.535 322.056 140.187 322.124 139.776 322.124ZM140.447 320.439C140.789 320.439 141.077 320.346 141.312 320.161C141.551 319.972 141.733 319.708 141.859 319.37C141.989 319.032 142.053 318.636 142.053 318.182C142.053 317.728 141.99 317.333 141.864 316.999C141.738 316.664 141.556 316.405 141.317 316.223C141.079 316.041 140.789 315.95 140.447 315.95C140.099 315.95 139.806 316.044 139.567 316.233C139.329 316.422 139.148 316.684 139.026 317.018C138.903 317.353 138.842 317.741 138.842 318.182C138.842 318.626 138.903 319.019 139.026 319.36C139.152 319.698 139.332 319.963 139.567 320.156C139.806 320.344 140.099 320.439 140.447 320.439ZM148.677 322.124C148.097 322.124 147.571 321.975 147.101 321.677C146.633 321.375 146.262 320.933 145.987 320.349C145.715 319.763 145.579 319.044 145.579 318.192C145.579 317.317 145.72 316.589 146.002 316.009C146.284 315.426 146.658 314.99 147.126 314.702C147.596 314.41 148.112 314.264 148.672 314.264C149.099 314.264 149.456 314.337 149.741 314.483C150.029 314.625 150.261 314.804 150.437 315.02C150.616 315.232 150.751 315.441 150.844 315.646H150.909V311.818H153.022V322H150.934V320.777H150.844C150.745 320.989 150.604 321.2 150.422 321.408C150.243 321.614 150.009 321.785 149.721 321.92C149.436 322.056 149.088 322.124 148.677 322.124ZM149.348 320.439C149.689 320.439 149.978 320.346 150.213 320.161C150.452 319.972 150.634 319.708 150.76 319.37C150.889 319.032 150.954 318.636 150.954 318.182C150.954 317.728 150.891 317.333 150.765 316.999C150.639 316.664 150.456 316.405 150.218 316.223C149.979 316.041 149.689 315.95 149.348 315.95C149 315.95 148.706 316.044 148.468 316.233C148.229 316.422 148.049 316.684 147.926 317.018C147.803 317.353 147.742 317.741 147.742 318.182C147.742 318.626 147.803 319.019 147.926 319.36C148.052 319.698 148.233 319.963 148.468 320.156C148.706 320.344 149 320.439 149.348 320.439ZM158.043 322V311.818H160.196V320.225H164.561V322H158.043ZM165.947 322V314.364H168.065V322H165.947ZM167.011 313.379C166.696 313.379 166.426 313.275 166.2 313.066C165.978 312.854 165.867 312.6 165.867 312.305C165.867 312.014 165.978 311.763 166.2 311.555C166.426 311.343 166.696 311.237 167.011 311.237C167.326 311.237 167.594 311.343 167.816 311.555C168.041 311.763 168.154 312.014 168.154 312.305C168.154 312.6 168.041 312.854 167.816 313.066C167.594 313.275 167.326 313.379 167.011 313.379ZM171.879 317.585V322H169.761V314.364H171.78V315.711H171.869C172.038 315.267 172.322 314.915 172.719 314.657C173.117 314.395 173.599 314.264 174.166 314.264C174.696 314.264 175.159 314.38 175.553 314.612C175.948 314.844 176.254 315.176 176.473 315.607C176.692 316.034 176.801 316.545 176.801 317.138V322H174.683V317.516C174.686 317.048 174.567 316.684 174.325 316.422C174.083 316.157 173.75 316.024 173.326 316.024C173.041 316.024 172.789 316.085 172.57 316.208C172.355 316.331 172.186 316.51 172.063 316.745C171.944 316.977 171.882 317.257 171.879 317.585ZM180.389 319.803L180.394 317.262H180.702L183.148 314.364H185.58L182.293 318.202H181.791L180.389 319.803ZM178.47 322V311.818H180.588V322H178.47ZM183.243 322L180.996 318.674L182.408 317.178L185.724 322H183.243Z" fill="white"/>
<path d="M210 318H204V316H210V310H212V316H218V318H212V324H210V318Z" fill="white"/>
<g filter="url(#filter2_d_8_129)">
<rect x="44" y="220" width="262" height="50" rx="10" fill="#EB4335"/>
</g>
<path d="M62.4119 237.455H65.8565L69.1733 243.719H69.3153L72.6321 237.455H76.0767L70.7713 246.858V252H67.7173V246.858L62.4119 237.455ZM80.3434 252.213C79.2402 252.213 78.2861 251.979 77.4812 251.51C76.681 251.036 76.0631 250.378 75.6275 249.536C75.1919 248.688 74.9741 247.705 74.9741 246.588C74.9741 245.461 75.1919 244.476 75.6275 243.634C76.0631 242.786 76.681 242.128 77.4812 241.659C78.2861 241.186 79.2402 240.949 80.3434 240.949C81.4466 240.949 82.3983 241.186 83.1985 241.659C84.0034 242.128 84.6237 242.786 85.0593 243.634C85.4949 244.476 85.7127 245.461 85.7127 246.588C85.7127 247.705 85.4949 248.688 85.0593 249.536C84.6237 250.378 84.0034 251.036 83.1985 251.51C82.3983 251.979 81.4466 252.213 80.3434 252.213ZM80.3576 249.869C80.8595 249.869 81.2785 249.727 81.6147 249.443C81.9509 249.154 82.2042 248.761 82.3746 248.264C82.5498 247.767 82.6374 247.201 82.6374 246.567C82.6374 245.932 82.5498 245.366 82.3746 244.869C82.2042 244.372 81.9509 243.979 81.6147 243.69C81.2785 243.402 80.8595 243.257 80.3576 243.257C79.851 243.257 79.4248 243.402 79.0792 243.69C78.7383 243.979 78.4802 244.372 78.305 244.869C78.1346 245.366 78.0494 245.932 78.0494 246.567C78.0494 247.201 78.1346 247.767 78.305 248.264C78.4802 248.761 78.7383 249.154 79.0792 249.443C79.4248 249.727 79.851 249.869 80.3576 249.869ZM94.6758 247.355V241.091H97.7013V252H94.7965V250.018H94.6829C94.4367 250.658 94.0271 251.171 93.4542 251.56C92.886 251.948 92.1924 252.142 91.3732 252.142C90.6441 252.142 90.0025 251.976 89.4485 251.645C88.8945 251.313 88.4613 250.842 88.1488 250.232C87.841 249.621 87.6848 248.889 87.68 248.037V241.091H90.7056V247.497C90.7103 248.141 90.8832 248.65 91.2241 249.024C91.565 249.398 92.0219 249.585 92.5948 249.585C92.9594 249.585 93.3003 249.502 93.6175 249.337C93.9348 249.166 94.1905 248.915 94.3846 248.584C94.5835 248.252 94.6805 247.843 94.6758 247.355ZM105.924 241.091V243.364H99.3544V241.091H105.924ZM100.846 238.477H103.871V248.648C103.871 248.927 103.914 249.145 103.999 249.301C104.085 249.453 104.203 249.559 104.354 249.621C104.511 249.682 104.691 249.713 104.894 249.713C105.036 249.713 105.178 249.701 105.32 249.678C105.462 249.649 105.571 249.628 105.647 249.614L106.123 251.865C105.971 251.912 105.758 251.967 105.484 252.028C105.209 252.095 104.875 252.135 104.482 252.149C103.753 252.178 103.114 252.08 102.565 251.858C102.02 251.635 101.596 251.29 101.293 250.821C100.99 250.352 100.841 249.76 100.846 249.045V238.477ZM114.891 247.355V241.091H117.916V252H115.011V250.018H114.898C114.652 250.658 114.242 251.171 113.669 251.56C113.101 251.948 112.407 252.142 111.588 252.142C110.859 252.142 110.217 251.976 109.663 251.645C109.109 251.313 108.676 250.842 108.364 250.232C108.056 249.621 107.9 248.889 107.895 248.037V241.091H110.92V247.497C110.925 248.141 111.098 248.65 111.439 249.024C111.78 249.398 112.237 249.585 112.81 249.585C113.174 249.585 113.515 249.502 113.832 249.337C114.15 249.166 114.405 248.915 114.599 248.584C114.798 248.252 114.895 247.843 114.891 247.355ZM120.393 252V237.455H123.419V242.923H123.511C123.644 242.63 123.835 242.331 124.086 242.028C124.342 241.721 124.673 241.465 125.081 241.261C125.493 241.053 126.004 240.949 126.615 240.949C127.41 240.949 128.144 241.157 128.816 241.574C129.489 241.986 130.026 242.608 130.429 243.442C130.831 244.27 131.032 245.31 131.032 246.56C131.032 247.777 130.836 248.804 130.443 249.642C130.055 250.475 129.524 251.107 128.852 251.538C128.184 251.964 127.436 252.178 126.608 252.178C126.02 252.178 125.521 252.08 125.109 251.886C124.702 251.692 124.368 251.448 124.108 251.155C123.847 250.857 123.648 250.556 123.511 250.253H123.376V252H120.393ZM123.355 246.545C123.355 247.194 123.445 247.76 123.625 248.243C123.805 248.726 124.065 249.102 124.406 249.372C124.747 249.637 125.161 249.77 125.649 249.77C126.141 249.77 126.558 249.635 126.899 249.365C127.24 249.09 127.498 248.712 127.673 248.229C127.853 247.741 127.943 247.18 127.943 246.545C127.943 245.916 127.855 245.362 127.68 244.884C127.505 244.405 127.247 244.031 126.906 243.761C126.565 243.491 126.146 243.357 125.649 243.357C125.156 243.357 124.74 243.487 124.399 243.747C124.063 244.008 123.805 244.377 123.625 244.855C123.445 245.333 123.355 245.897 123.355 246.545ZM138.023 252.213C136.901 252.213 135.935 251.986 135.125 251.531C134.32 251.072 133.7 250.423 133.264 249.585C132.829 248.742 132.611 247.746 132.611 246.595C132.611 245.473 132.829 244.488 133.264 243.641C133.7 242.793 134.313 242.133 135.104 241.659C135.899 241.186 136.832 240.949 137.902 240.949C138.622 240.949 139.292 241.065 139.912 241.297C140.537 241.524 141.081 241.867 141.545 242.327C142.014 242.786 142.379 243.364 142.639 244.06C142.9 244.751 143.03 245.561 143.03 246.489V247.32H133.818V245.445H140.182C140.182 245.009 140.087 244.623 139.898 244.287C139.708 243.951 139.446 243.688 139.109 243.499C138.778 243.304 138.392 243.207 137.952 243.207C137.492 243.207 137.085 243.314 136.73 243.527C136.38 243.735 136.105 244.017 135.906 244.372C135.707 244.723 135.606 245.113 135.601 245.544V247.327C135.601 247.866 135.7 248.333 135.899 248.726C136.103 249.119 136.389 249.422 136.759 249.635C137.128 249.848 137.566 249.955 138.072 249.955C138.409 249.955 138.716 249.907 138.996 249.812C139.275 249.718 139.514 249.576 139.713 249.386C139.912 249.197 140.063 248.965 140.168 248.69L142.966 248.875C142.824 249.547 142.533 250.134 142.092 250.636C141.657 251.134 141.093 251.522 140.402 251.801C139.715 252.076 138.922 252.213 138.023 252.213Z" fill="white"/>
<g filter="url(#filter3_d_8_129)">
<rect x="44" y="151" width="262" height="50" rx="10" fill="#333333"/>
</g>
<path d="M72.9091 173.156C72.8097 172.811 72.67 172.505 72.4901 172.24C72.3101 171.97 72.09 171.743 71.8295 171.558C71.5739 171.369 71.2803 171.224 70.9489 171.125C70.6222 171.026 70.2599 170.976 69.8622 170.976C69.1188 170.976 68.4654 171.161 67.902 171.53C67.3433 171.899 66.9077 172.437 66.5952 173.142C66.2827 173.843 66.1264 174.7 66.1264 175.713C66.1264 176.726 66.2803 177.588 66.5881 178.298C66.8958 179.009 67.3314 179.551 67.8949 179.925C68.4583 180.294 69.1236 180.479 69.8906 180.479C70.5866 180.479 71.1809 180.356 71.6733 180.109C72.1705 179.858 72.5492 179.506 72.8097 179.051C73.0748 178.597 73.2074 178.059 73.2074 177.439L73.8324 177.531H70.0824V175.216H76.169V177.048C76.169 178.327 75.8991 179.425 75.3594 180.344C74.8196 181.258 74.0762 181.963 73.1293 182.46C72.1823 182.953 71.098 183.199 69.8764 183.199C68.5128 183.199 67.3149 182.898 66.2827 182.297C65.2505 181.691 64.4455 180.831 63.8679 179.719C63.295 178.601 63.0085 177.276 63.0085 175.741C63.0085 174.562 63.179 173.511 63.5199 172.588C63.8655 171.66 64.3485 170.874 64.9688 170.23C65.589 169.586 66.3111 169.096 67.1349 168.76C67.9588 168.424 68.8513 168.256 69.8125 168.256C70.6364 168.256 71.4034 168.376 72.1136 168.618C72.8239 168.855 73.4536 169.191 74.0028 169.626C74.5568 170.062 75.009 170.58 75.3594 171.182C75.7098 171.778 75.9347 172.437 76.0341 173.156H72.9091ZM79.1058 183V172.091H82.1314V183H79.1058ZM80.6257 170.685C80.1759 170.685 79.79 170.536 79.468 170.237C79.1508 169.934 78.9922 169.572 78.9922 169.151C78.9922 168.734 79.1508 168.376 79.468 168.078C79.79 167.775 80.1759 167.624 80.6257 167.624C81.0755 167.624 81.459 167.775 81.7763 168.078C82.0982 168.376 82.2592 168.734 82.2592 169.151C82.2592 169.572 82.0982 169.934 81.7763 170.237C81.459 170.536 81.0755 170.685 80.6257 170.685ZM90.3576 172.091V174.364H83.788V172.091H90.3576ZM85.2795 169.477H88.305V179.648C88.305 179.927 88.3477 180.145 88.4329 180.301C88.5181 180.453 88.6365 180.559 88.788 180.621C88.9442 180.682 89.1242 180.713 89.3278 180.713C89.4698 180.713 89.6119 180.701 89.7539 180.678C89.896 180.649 90.0049 180.628 90.0806 180.614L90.5565 182.865C90.4049 182.912 90.1919 182.967 89.9173 183.028C89.6426 183.095 89.3088 183.135 88.9158 183.149C88.1867 183.178 87.5475 183.08 86.9982 182.858C86.4537 182.635 86.0299 182.29 85.7269 181.821C85.4239 181.352 85.2747 180.76 85.2795 180.045V169.477ZM92.6197 183V168.455H95.695V174.456H101.938V168.455H105.006V183H101.938V176.991H95.695V183H92.6197ZM114.48 178.355V172.091H117.506V183H114.601V181.018H114.488C114.241 181.658 113.832 182.171 113.259 182.56C112.691 182.948 111.997 183.142 111.178 183.142C110.449 183.142 109.807 182.976 109.253 182.645C108.699 182.313 108.266 181.842 107.953 181.232C107.646 180.621 107.489 179.889 107.485 179.037V172.091H110.51V178.497C110.515 179.141 110.688 179.65 111.029 180.024C111.37 180.398 111.827 180.585 112.4 180.585C112.764 180.585 113.105 180.502 113.422 180.337C113.739 180.166 113.995 179.915 114.189 179.584C114.388 179.252 114.485 178.843 114.48 178.355ZM119.983 183V168.455H123.009V173.923H123.101C123.233 173.63 123.425 173.331 123.676 173.028C123.932 172.721 124.263 172.465 124.67 172.261C125.082 172.053 125.594 171.949 126.205 171.949C127 171.949 127.734 172.157 128.406 172.574C129.079 172.986 129.616 173.608 130.018 174.442C130.421 175.27 130.622 176.31 130.622 177.56C130.622 178.777 130.426 179.804 130.033 180.642C129.644 181.475 129.114 182.107 128.442 182.538C127.774 182.964 127.026 183.178 126.197 183.178C125.61 183.178 125.111 183.08 124.699 182.886C124.292 182.692 123.958 182.448 123.697 182.155C123.437 181.857 123.238 181.556 123.101 181.253H122.966V183H119.983ZM122.945 177.545C122.945 178.194 123.035 178.76 123.214 179.243C123.394 179.726 123.655 180.102 123.996 180.372C124.337 180.637 124.751 180.77 125.239 180.77C125.731 180.77 126.148 180.635 126.489 180.365C126.83 180.09 127.088 179.712 127.263 179.229C127.443 178.741 127.533 178.18 127.533 177.545C127.533 176.916 127.445 176.362 127.27 175.884C127.095 175.405 126.837 175.031 126.496 174.761C126.155 174.491 125.736 174.357 125.239 174.357C124.746 174.357 124.33 174.487 123.989 174.747C123.652 175.008 123.394 175.377 123.214 175.855C123.035 176.333 122.945 176.897 122.945 177.545Z" fill="white"/>
<g filter="url(#filter4_d_8_129)">
<rect x="44" y="82" width="262" height="50" rx="10" fill="#1447E6"/>
</g>
<path d="M63.2642 114V99.4545H72.8949V101.99H66.3395V105.456H72.2557V107.991H66.3395V114H63.2642ZM77.8807 114.206C77.1847 114.206 76.5644 114.085 76.0199 113.844C75.4754 113.598 75.0445 113.235 74.7273 112.757C74.4148 112.274 74.2585 111.673 74.2585 110.953C74.2585 110.347 74.3698 109.838 74.5923 109.426C74.8149 109.014 75.1179 108.683 75.5014 108.432C75.8849 108.181 76.3205 107.991 76.8082 107.864C77.3007 107.736 77.8168 107.646 78.3565 107.594C78.991 107.527 79.5024 107.466 79.8906 107.409C80.2789 107.348 80.5606 107.258 80.7358 107.139C80.911 107.021 80.9986 106.846 80.9986 106.614V106.571C80.9986 106.121 80.8565 105.773 80.5724 105.527C80.2931 105.281 79.8954 105.158 79.3793 105.158C78.8348 105.158 78.4015 105.278 78.0795 105.52C77.7576 105.757 77.5445 106.055 77.4403 106.415L74.642 106.188C74.7841 105.525 75.0634 104.952 75.4801 104.469C75.8968 103.981 76.4342 103.607 77.0923 103.347C77.7552 103.081 78.5223 102.949 79.3935 102.949C79.9995 102.949 80.5795 103.02 81.1335 103.162C81.6922 103.304 82.187 103.524 82.6179 103.822C83.0535 104.121 83.3968 104.504 83.6477 104.973C83.8987 105.437 84.0241 105.993 84.0241 106.642V114H81.1548V112.487H81.0696C80.8944 112.828 80.66 113.129 80.3665 113.389C80.0729 113.645 79.7202 113.846 79.3082 113.993C78.8963 114.135 78.4205 114.206 77.8807 114.206ZM78.7472 112.118C79.1922 112.118 79.5852 112.03 79.9261 111.855C80.267 111.675 80.5346 111.434 80.7287 111.131C80.9228 110.828 81.0199 110.484 81.0199 110.101V108.943C80.9252 109.005 80.795 109.062 80.6293 109.114C80.4683 109.161 80.286 109.206 80.0824 109.249C79.8788 109.286 79.6752 109.322 79.4716 109.355C79.268 109.384 79.0833 109.41 78.9176 109.433C78.5625 109.485 78.2524 109.568 77.9872 109.682C77.7221 109.795 77.5161 109.949 77.3693 110.143C77.2225 110.333 77.1491 110.57 77.1491 110.854C77.1491 111.266 77.2983 111.58 77.5966 111.798C77.8996 112.011 78.2831 112.118 78.7472 112.118ZM91.3004 114.213C90.183 114.213 89.2218 113.976 88.4169 113.503C87.6167 113.025 87.0012 112.362 86.5703 111.514C86.1442 110.667 85.9311 109.691 85.9311 108.588C85.9311 107.471 86.1465 106.491 86.5774 105.648C87.013 104.8 87.6309 104.14 88.4311 103.666C89.2313 103.188 90.183 102.949 91.2862 102.949C92.2379 102.949 93.0713 103.122 93.7862 103.467C94.5012 103.813 95.067 104.298 95.4837 104.923C95.9003 105.548 96.13 106.282 96.1726 107.125H93.3175C93.237 106.58 93.0239 106.143 92.6783 105.811C92.3374 105.475 91.8899 105.307 91.3359 105.307C90.8672 105.307 90.4576 105.435 90.1072 105.69C89.7616 105.941 89.4917 106.308 89.2976 106.791C89.1035 107.274 89.0064 107.859 89.0064 108.545C89.0064 109.241 89.1011 109.833 89.2905 110.321C89.4846 110.809 89.7569 111.18 90.1072 111.436C90.4576 111.692 90.8672 111.82 91.3359 111.82C91.6816 111.82 91.9917 111.749 92.2663 111.607C92.5457 111.464 92.7753 111.259 92.9553 110.989C93.1399 110.714 93.2607 110.385 93.3175 110.001H96.1726C96.1252 110.835 95.898 111.569 95.4908 112.203C95.0883 112.833 94.532 113.325 93.8217 113.68C93.1115 114.036 92.2711 114.213 91.3004 114.213ZM103.081 114.213C101.959 114.213 100.993 113.986 100.184 113.531C99.3787 113.072 98.7584 112.423 98.3228 111.585C97.8872 110.742 97.6694 109.746 97.6694 108.595C97.6694 107.473 97.8872 106.488 98.3228 105.641C98.7584 104.793 99.3716 104.133 100.162 103.659C100.958 103.186 101.891 102.949 102.961 102.949C103.68 102.949 104.35 103.065 104.971 103.297C105.596 103.524 106.14 103.867 106.604 104.327C107.073 104.786 107.437 105.364 107.698 106.06C107.958 106.751 108.088 107.561 108.088 108.489V109.32H98.8768V107.445H105.24C105.24 107.009 105.146 106.623 104.956 106.287C104.767 105.951 104.504 105.688 104.168 105.499C103.837 105.304 103.451 105.207 103.01 105.207C102.551 105.207 102.144 105.314 101.789 105.527C101.438 105.735 101.164 106.017 100.965 106.372C100.766 106.723 100.664 107.113 100.659 107.544V109.327C100.659 109.866 100.759 110.333 100.958 110.726C101.161 111.119 101.448 111.422 101.817 111.635C102.186 111.848 102.624 111.955 103.131 111.955C103.467 111.955 103.775 111.907 104.054 111.812C104.334 111.718 104.573 111.576 104.772 111.386C104.971 111.197 105.122 110.965 105.226 110.69L108.025 110.875C107.882 111.547 107.591 112.134 107.151 112.636C106.715 113.134 106.152 113.522 105.461 113.801C104.774 114.076 103.981 114.213 103.081 114.213ZM110.12 114V99.4545H115.944C117.014 99.4545 117.906 99.6132 118.621 99.9304C119.336 100.248 119.873 100.688 120.233 101.251C120.593 101.81 120.773 102.454 120.773 103.183C120.773 103.751 120.659 104.251 120.432 104.682C120.205 105.108 119.892 105.458 119.495 105.733C119.102 106.003 118.652 106.195 118.145 106.308V106.45C118.699 106.474 119.218 106.63 119.701 106.919C120.188 107.208 120.584 107.613 120.887 108.134C121.19 108.65 121.341 109.265 121.341 109.98C121.341 110.752 121.15 111.441 120.766 112.047C120.387 112.648 119.826 113.124 119.083 113.474C118.339 113.825 117.423 114 116.334 114H110.12ZM113.195 111.486H115.702C116.559 111.486 117.184 111.322 117.577 110.996C117.97 110.664 118.167 110.224 118.167 109.675C118.167 109.272 118.069 108.917 117.875 108.609C117.681 108.302 117.404 108.06 117.044 107.885C116.689 107.71 116.266 107.622 115.773 107.622H113.195V111.486ZM113.195 105.541H115.475C115.896 105.541 116.27 105.468 116.597 105.321C116.928 105.17 117.189 104.956 117.378 104.682C117.572 104.407 117.669 104.078 117.669 103.695C117.669 103.169 117.482 102.745 117.108 102.423C116.739 102.101 116.213 101.94 115.532 101.94H113.195V105.541ZM128.214 114.213C127.111 114.213 126.157 113.979 125.352 113.51C124.552 113.036 123.934 112.378 123.499 111.536C123.063 110.688 122.845 109.705 122.845 108.588C122.845 107.461 123.063 106.476 123.499 105.634C123.934 104.786 124.552 104.128 125.352 103.659C126.157 103.186 127.111 102.949 128.214 102.949C129.318 102.949 130.269 103.186 131.07 103.659C131.875 104.128 132.495 104.786 132.93 105.634C133.366 106.476 133.584 107.461 133.584 108.588C133.584 109.705 133.366 110.688 132.93 111.536C132.495 112.378 131.875 113.036 131.07 113.51C130.269 113.979 129.318 114.213 128.214 114.213ZM128.229 111.869C128.731 111.869 129.15 111.727 129.486 111.443C129.822 111.154 130.075 110.761 130.246 110.264C130.421 109.767 130.509 109.201 130.509 108.567C130.509 107.932 130.421 107.366 130.246 106.869C130.075 106.372 129.822 105.979 129.486 105.69C129.15 105.402 128.731 105.257 128.229 105.257C127.722 105.257 127.296 105.402 126.95 105.69C126.609 105.979 126.351 106.372 126.176 106.869C126.006 107.366 125.92 107.932 125.92 108.567C125.92 109.201 126.006 109.767 126.176 110.264C126.351 110.761 126.609 111.154 126.95 111.443C127.296 111.727 127.722 111.869 128.229 111.869ZM140.48 114.213C139.377 114.213 138.423 113.979 137.618 113.51C136.818 113.036 136.2 112.378 135.764 111.536C135.329 110.688 135.111 109.705 135.111 108.588C135.111 107.461 135.329 106.476 135.764 105.634C136.2 104.786 136.818 104.128 137.618 103.659C138.423 103.186 139.377 102.949 140.48 102.949C141.583 102.949 142.535 103.186 143.335 103.659C144.14 104.128 144.76 104.786 145.196 105.634C145.632 106.476 145.849 107.461 145.849 108.588C145.849 109.705 145.632 110.688 145.196 111.536C144.76 112.378 144.14 113.036 143.335 113.51C142.535 113.979 141.583 114.213 140.48 114.213ZM140.494 111.869C140.996 111.869 141.415 111.727 141.751 111.443C142.088 111.154 142.341 110.761 142.511 110.264C142.687 109.767 142.774 109.201 142.774 108.567C142.774 107.932 142.687 107.366 142.511 106.869C142.341 106.372 142.088 105.979 141.751 105.69C141.415 105.402 140.996 105.257 140.494 105.257C139.988 105.257 139.562 105.402 139.216 105.69C138.875 105.979 138.617 106.372 138.442 106.869C138.271 107.366 138.186 107.932 138.186 108.567C138.186 109.201 138.271 109.767 138.442 110.264C138.617 110.761 138.875 111.154 139.216 111.443C139.562 111.727 139.988 111.869 140.494 111.869ZM150.558 110.861L150.565 107.232H151.006L154.5 103.091H157.973L153.278 108.574H152.561L150.558 110.861ZM147.817 114V99.4545H150.842V114H147.817ZM154.635 114L151.425 109.249L153.442 107.111L158.179 114H154.635Z" fill="white"/>
<path d="M289 55C288.45 55 287.979 54.8042 287.587 54.4125C287.196 54.0208 287 53.55 287 53V40H286V38H291V37H297V38H302V40H301V53C301 53.55 300.804 54.0208 300.413 54.4125C300.021 54.8042 299.55 55 299 55H289ZM291 51H293V42H291V51ZM295 51H297V42H295V51Z" fill="#F31C1C"/>
<path d="M53.1548 42.6378C53.098 42.0649 52.8542 41.6198 52.4233 41.3026C51.9924 40.9853 51.4077 40.8267 50.669 40.8267C50.1671 40.8267 49.7434 40.8977 49.3977 41.0398C49.0521 41.1771 48.7869 41.3688 48.6023 41.6151C48.4223 41.8613 48.3324 42.1406 48.3324 42.4531C48.3229 42.7135 48.3774 42.9408 48.4957 43.1349C48.6188 43.3291 48.7869 43.4972 49 43.6392C49.2131 43.7765 49.4593 43.8973 49.7386 44.0014C50.018 44.1009 50.3163 44.1861 50.6335 44.2571L51.9403 44.5696C52.5748 44.7116 53.1572 44.901 53.6875 45.1378C54.2178 45.3745 54.6771 45.6657 55.0653 46.0114C55.4536 46.357 55.7543 46.7642 55.9673 47.233C56.1851 47.7017 56.2964 48.2391 56.3011 48.8452C56.2964 49.7353 56.0691 50.5071 55.6193 51.1605C55.1742 51.8092 54.5303 52.3134 53.6875 52.6733C52.8494 53.0284 51.8385 53.206 50.6548 53.206C49.4806 53.206 48.4579 53.026 47.5866 52.6662C46.7202 52.3063 46.0431 51.7737 45.5554 51.0682C45.0724 50.358 44.8191 49.4796 44.7955 48.4332H47.7713C47.8045 48.9209 47.9441 49.3281 48.1903 49.6548C48.4413 49.9768 48.7751 50.2206 49.1918 50.3864C49.6132 50.5473 50.089 50.6278 50.6193 50.6278C51.1402 50.6278 51.5923 50.5521 51.9759 50.4006C52.3641 50.2491 52.6648 50.0384 52.8778 49.7685C53.0909 49.4986 53.1974 49.1884 53.1974 48.8381C53.1974 48.5114 53.1004 48.2367 52.9062 48.0142C52.7169 47.7917 52.4375 47.6023 52.0682 47.446C51.7036 47.2898 51.2562 47.1477 50.7259 47.0199L49.142 46.6222C47.9157 46.3239 46.9474 45.8575 46.2372 45.223C45.527 44.5885 45.1742 43.7339 45.179 42.6591C45.1742 41.7784 45.4086 41.009 45.8821 40.3509C46.3603 39.6927 47.0161 39.179 47.8494 38.8097C48.6828 38.4403 49.6297 38.2557 50.6903 38.2557C51.7699 38.2557 52.7121 38.4403 53.517 38.8097C54.3267 39.179 54.9564 39.6927 55.4062 40.3509C55.8561 41.009 56.0881 41.7713 56.1023 42.6378H53.1548ZM63.2418 53.2131C62.1386 53.2131 61.1845 52.9787 60.3796 52.5099C59.5794 52.0365 58.9615 51.3783 58.5259 50.5355C58.0903 49.688 57.8725 48.7055 57.8725 47.5881C57.8725 46.4612 58.0903 45.4763 58.5259 44.6335C58.9615 43.786 59.5794 43.1278 60.3796 42.6591C61.1845 42.1856 62.1386 41.9489 63.2418 41.9489C64.3451 41.9489 65.2968 42.1856 66.0969 42.6591C66.9019 43.1278 67.5221 43.786 67.9577 44.6335C68.3933 45.4763 68.6112 46.4612 68.6112 47.5881C68.6112 48.7055 68.3933 49.688 67.9577 50.5355C67.5221 51.3783 66.9019 52.0365 66.0969 52.5099C65.2968 52.9787 64.3451 53.2131 63.2418 53.2131ZM63.256 50.8693C63.7579 50.8693 64.177 50.7273 64.5131 50.4432C64.8493 50.1544 65.1026 49.7614 65.2731 49.2642C65.4483 48.767 65.5359 48.2012 65.5359 47.5668C65.5359 46.9323 65.4483 46.3665 65.2731 45.8693C65.1026 45.3722 64.8493 44.9792 64.5131 44.6903C64.177 44.4015 63.7579 44.2571 63.256 44.2571C62.7494 44.2571 62.3233 44.4015 61.9776 44.6903C61.6367 44.9792 61.3787 45.3722 61.2035 45.8693C61.033 46.3665 60.9478 46.9323 60.9478 47.5668C60.9478 48.2012 61.033 48.767 61.2035 49.2642C61.3787 49.7614 61.6367 50.1544 61.9776 50.4432C62.3233 50.7273 62.7494 50.8693 63.256 50.8693ZM75.5075 53.2131C74.39 53.2131 73.4289 52.9763 72.6239 52.5028C71.8237 52.0246 71.2082 51.3617 70.7773 50.5142C70.3512 49.6667 70.1381 48.6913 70.1381 47.5881C70.1381 46.4706 70.3536 45.4905 70.7844 44.6477C71.2201 43.8002 71.8379 43.1397 72.6381 42.6662C73.4383 42.188 74.39 41.9489 75.4933 41.9489C76.445 41.9489 77.2783 42.1217 77.9933 42.4673C78.7082 42.813 79.274 43.2983 79.6907 43.9233C80.1074 44.5483 80.337 45.2822 80.3796 46.125H77.5245C77.444 45.5805 77.2309 45.1425 76.8853 44.8111C76.5444 44.4749 76.0969 44.3068 75.543 44.3068C75.0742 44.3068 74.6647 44.4347 74.3143 44.6903C73.9686 44.9413 73.6987 45.3082 73.5046 45.7912C73.3105 46.2741 73.2134 46.8589 73.2134 47.5455C73.2134 48.2415 73.3081 48.8333 73.4975 49.321C73.6916 49.8087 73.9639 50.1804 74.3143 50.4361C74.6647 50.6918 75.0742 50.8196 75.543 50.8196C75.8886 50.8196 76.1987 50.7486 76.4734 50.6065C76.7527 50.4645 76.9824 50.2585 77.1623 49.9886C77.3469 49.714 77.4677 49.3849 77.5245 49.0014H80.3796C80.3323 49.8348 80.105 50.5687 79.6978 51.2031C79.2953 51.8329 78.739 52.3253 78.0288 52.6804C77.3185 53.0355 76.4781 53.2131 75.5075 53.2131ZM82.3168 53V42.0909H85.3423V53H82.3168ZM83.8366 40.6847C83.3868 40.6847 83.0009 40.5355 82.679 40.2372C82.3617 39.9342 82.2031 39.572 82.2031 39.1506C82.2031 38.7339 82.3617 38.3764 82.679 38.0781C83.0009 37.7751 83.3868 37.6236 83.8366 37.6236C84.2865 37.6236 84.67 37.7751 84.9872 38.0781C85.3092 38.3764 85.4702 38.7339 85.4702 39.1506C85.4702 39.572 85.3092 39.9342 84.9872 40.2372C84.67 40.5355 84.2865 40.6847 83.8366 40.6847ZM90.8768 53.206C90.1808 53.206 89.5605 53.0852 89.016 52.8438C88.4715 52.5975 88.0406 52.2353 87.7234 51.7571C87.4109 51.2741 87.2546 50.6728 87.2546 49.9531C87.2546 49.3471 87.3659 48.8381 87.5884 48.4261C87.811 48.0142 88.114 47.6828 88.4975 47.4318C88.881 47.1809 89.3166 46.9915 89.8043 46.8636C90.2968 46.7358 90.8129 46.6458 91.3526 46.5938C91.9871 46.5275 92.4985 46.4659 92.8867 46.4091C93.275 46.3475 93.5567 46.2576 93.7319 46.1392C93.9071 46.0208 93.9947 45.8456 93.9947 45.6136V45.571C93.9947 45.1212 93.8526 44.7732 93.5685 44.527C93.2892 44.2808 92.8915 44.1577 92.3754 44.1577C91.8308 44.1577 91.3976 44.2784 91.0756 44.5199C90.7537 44.7566 90.5406 45.0549 90.4364 45.4148L87.6381 45.1875C87.7802 44.5246 88.0595 43.9517 88.4762 43.4688C88.8929 42.9811 89.4303 42.607 90.0884 42.3466C90.7513 42.0814 91.5183 41.9489 92.3896 41.9489C92.9956 41.9489 93.5756 42.0199 94.1296 42.1619C94.6883 42.304 95.1831 42.5241 95.614 42.8224C96.0496 43.1207 96.3929 43.5043 96.6438 43.973C96.8948 44.437 97.0202 44.9934 97.0202 45.642V53H94.1509V51.4872H94.0657C93.8905 51.8281 93.6561 52.1288 93.3626 52.3892C93.069 52.6449 92.7163 52.8461 92.3043 52.9929C91.8924 53.1349 91.4165 53.206 90.8768 53.206ZM91.7433 51.1179C92.1883 51.1179 92.5813 51.0303 92.9222 50.8551C93.2631 50.6752 93.5307 50.4337 93.7248 50.1307C93.9189 49.8277 94.016 49.4844 94.016 49.1009V47.9432C93.9213 48.0047 93.7911 48.0616 93.6254 48.1136C93.4644 48.161 93.2821 48.206 93.0785 48.2486C92.8749 48.2865 92.6713 48.322 92.4677 48.3551C92.2641 48.3835 92.0794 48.4096 91.9137 48.4332C91.5586 48.4853 91.2485 48.5682 90.9833 48.6818C90.7182 48.7955 90.5122 48.9493 90.3654 49.1435C90.2186 49.3329 90.1452 49.5696 90.1452 49.8537C90.1452 50.2656 90.2944 50.5805 90.5927 50.7983C90.8957 51.0114 91.2792 51.1179 91.7433 51.1179ZM102.393 38.4545V53H99.3675V38.4545H102.393ZM109.502 38.4545H113.295L117.301 48.2273H117.471L121.477 38.4545H125.27V53H122.287V43.5327H122.166L118.402 52.929H116.37L112.606 43.4972H112.485V53H109.502V38.4545ZM132.718 53.2131C131.596 53.2131 130.63 52.9858 129.82 52.5312C129.015 52.072 128.395 51.4233 127.96 50.5852C127.524 49.7424 127.306 48.7457 127.306 47.5952C127.306 46.473 127.524 45.4882 127.96 44.6406C128.395 43.7931 129.008 43.1326 129.799 42.6591C130.594 42.1856 131.527 41.9489 132.597 41.9489C133.317 41.9489 133.987 42.0649 134.607 42.2969C135.232 42.5241 135.777 42.8674 136.241 43.3267C136.71 43.786 137.074 44.3636 137.335 45.0597C137.595 45.7509 137.725 46.5606 137.725 47.4886V48.3196H128.513V46.4446H134.877C134.877 46.009 134.782 45.6231 134.593 45.2869C134.404 44.9508 134.141 44.688 133.805 44.4986C133.473 44.3045 133.087 44.2074 132.647 44.2074C132.188 44.2074 131.781 44.3139 131.425 44.527C131.075 44.7353 130.8 45.017 130.602 45.3722C130.403 45.7225 130.301 46.1132 130.296 46.544V48.3267C130.296 48.8665 130.396 49.3329 130.594 49.7259C130.798 50.1188 131.085 50.4219 131.454 50.6349C131.823 50.848 132.261 50.9545 132.768 50.9545C133.104 50.9545 133.412 50.9072 133.691 50.8125C133.97 50.7178 134.21 50.5758 134.408 50.3864C134.607 50.197 134.759 49.965 134.863 49.6903L137.661 49.875C137.519 50.5473 137.228 51.1345 136.788 51.6364C136.352 52.1335 135.789 52.5218 135.097 52.8011C134.411 53.0758 133.618 53.2131 132.718 53.2131ZM143.719 53.1776C142.891 53.1776 142.14 52.9645 141.468 52.5384C140.8 52.1075 140.27 51.4754 139.877 50.642C139.489 49.804 139.295 48.7765 139.295 47.5597C139.295 46.3097 139.496 45.2704 139.898 44.4418C140.301 43.6084 140.836 42.9858 141.504 42.5739C142.176 42.1572 142.912 41.9489 143.712 41.9489C144.323 41.9489 144.832 42.053 145.239 42.2614C145.651 42.465 145.983 42.7206 146.234 43.0284C146.489 43.3314 146.683 43.6297 146.816 43.9233H146.908V38.4545H149.927V53H146.944V51.2528H146.816C146.674 51.5559 146.473 51.8565 146.212 52.1548C145.957 52.4484 145.623 52.6922 145.211 52.8864C144.804 53.0805 144.307 53.1776 143.719 53.1776ZM144.678 50.7699C145.166 50.7699 145.578 50.6373 145.914 50.3722C146.255 50.1023 146.515 49.7259 146.695 49.2429C146.88 48.7599 146.972 48.1941 146.972 47.5455C146.972 46.8968 146.882 46.3333 146.702 45.8551C146.522 45.3769 146.262 45.0076 145.921 44.7472C145.58 44.4867 145.166 44.3565 144.678 44.3565C144.181 44.3565 143.762 44.4915 143.421 44.7614C143.08 45.0312 142.822 45.4053 142.647 45.8835C142.472 46.3617 142.384 46.9157 142.384 47.5455C142.384 48.1799 142.472 48.741 142.647 49.2287C142.827 49.7116 143.085 50.0904 143.421 50.3651C143.762 50.6349 144.181 50.7699 144.678 50.7699ZM152.414 53V42.0909H155.44V53H152.414ZM153.934 40.6847C153.484 40.6847 153.099 40.5355 152.777 40.2372C152.459 39.9342 152.301 39.572 152.301 39.1506C152.301 38.7339 152.459 38.3764 152.777 38.0781C153.099 37.7751 153.484 37.6236 153.934 37.6236C154.384 37.6236 154.768 37.7751 155.085 38.0781C155.407 38.3764 155.568 38.7339 155.568 39.1506C155.568 39.572 155.407 39.9342 155.085 40.2372C154.768 40.5355 154.384 40.6847 153.934 40.6847ZM160.974 53.206C160.278 53.206 159.658 53.0852 159.114 52.8438C158.569 52.5975 158.138 52.2353 157.821 51.7571C157.509 51.2741 157.352 50.6728 157.352 49.9531C157.352 49.3471 157.464 48.8381 157.686 48.4261C157.909 48.0142 158.212 47.6828 158.595 47.4318C158.979 47.1809 159.414 46.9915 159.902 46.8636C160.394 46.7358 160.911 46.6458 161.45 46.5938C162.085 46.5275 162.596 46.4659 162.984 46.4091C163.373 46.3475 163.654 46.2576 163.83 46.1392C164.005 46.0208 164.092 45.8456 164.092 45.6136V45.571C164.092 45.1212 163.95 44.7732 163.666 44.527C163.387 44.2808 162.989 44.1577 162.473 44.1577C161.929 44.1577 161.495 44.2784 161.173 44.5199C160.851 44.7566 160.638 45.0549 160.534 45.4148L157.736 45.1875C157.878 44.5246 158.157 43.9517 158.574 43.4688C158.991 42.9811 159.528 42.607 160.186 42.3466C160.849 42.0814 161.616 41.9489 162.487 41.9489C163.093 41.9489 163.673 42.0199 164.227 42.1619C164.786 42.304 165.281 42.5241 165.712 42.8224C166.147 43.1207 166.491 43.5043 166.741 43.973C166.992 44.437 167.118 44.9934 167.118 45.642V53H164.249V51.4872H164.163C163.988 51.8281 163.754 52.1288 163.46 52.3892C163.167 52.6449 162.814 52.8461 162.402 52.9929C161.99 53.1349 161.514 53.206 160.974 53.206ZM161.841 51.1179C162.286 51.1179 162.679 51.0303 163.02 50.8551C163.361 50.6752 163.628 50.4337 163.822 50.1307C164.017 49.8277 164.114 49.4844 164.114 49.1009V47.9432C164.019 48.0047 163.889 48.0616 163.723 48.1136C163.562 48.161 163.38 48.206 163.176 48.2486C162.973 48.2865 162.769 48.322 162.565 48.3551C162.362 48.3835 162.177 48.4096 162.011 48.4332C161.656 48.4853 161.346 48.5682 161.081 48.6818C160.816 48.7955 160.61 48.9493 160.463 49.1435C160.316 49.3329 160.243 49.5696 160.243 49.8537C160.243 50.2656 160.392 50.5805 160.69 50.7983C160.993 51.0114 161.377 51.1179 161.841 51.1179Z" fill="#1447E6"/>
<g filter="url(#filter5_d_8_129)">
<rect x="245" y="294" width="317" height="351" rx="10" fill="white"/>
</g>
<g filter="url(#filter6_d_8_129)">
<rect x="339" y="581" width="129" height="36" rx="10" fill="#1447E6"/>
</g>
<path d="M357.64 604H355.333L358.848 593.818H361.622L365.132 604H362.825L360.275 596.145H360.195L357.64 604ZM357.496 599.998H362.945V601.678H357.496V599.998ZM368.776 604.124C368.196 604.124 367.671 603.975 367.2 603.677C366.733 603.375 366.362 602.933 366.087 602.349C365.815 601.763 365.679 601.044 365.679 600.192C365.679 599.317 365.82 598.589 366.102 598.009C366.383 597.426 366.758 596.99 367.225 596.702C367.696 596.41 368.211 596.264 368.771 596.264C369.199 596.264 369.555 596.337 369.84 596.483C370.129 596.625 370.361 596.804 370.536 597.02C370.715 597.232 370.851 597.441 370.944 597.646H371.009V593.818H373.121V604H371.033V602.777H370.944C370.844 602.989 370.704 603.2 370.521 603.408C370.342 603.614 370.109 603.785 369.82 603.92C369.535 604.056 369.187 604.124 368.776 604.124ZM369.447 602.439C369.789 602.439 370.077 602.346 370.312 602.161C370.551 601.972 370.733 601.708 370.859 601.37C370.989 601.032 371.053 600.636 371.053 600.182C371.053 599.728 370.99 599.333 370.864 598.999C370.738 598.664 370.556 598.405 370.317 598.223C370.079 598.041 369.789 597.95 369.447 597.95C369.099 597.95 368.806 598.044 368.567 598.233C368.329 598.422 368.148 598.684 368.026 599.018C367.903 599.353 367.842 599.741 367.842 600.182C367.842 600.626 367.903 601.019 368.026 601.36C368.152 601.698 368.332 601.963 368.567 602.156C368.806 602.344 369.099 602.439 369.447 602.439ZM377.677 604.124C377.097 604.124 376.571 603.975 376.101 603.677C375.633 603.375 375.262 602.933 374.987 602.349C374.715 601.763 374.579 601.044 374.579 600.192C374.579 599.317 374.72 598.589 375.002 598.009C375.284 597.426 375.658 596.99 376.126 596.702C376.596 596.41 377.112 596.264 377.672 596.264C378.099 596.264 378.456 596.337 378.741 596.483C379.029 596.625 379.261 596.804 379.437 597.02C379.616 597.232 379.751 597.441 379.844 597.646H379.909V593.818H382.022V604H379.934V602.777H379.844C379.745 602.989 379.604 603.2 379.422 603.408C379.243 603.614 379.009 603.785 378.721 603.92C378.436 604.056 378.088 604.124 377.677 604.124ZM378.348 602.439C378.689 602.439 378.978 602.346 379.213 602.161C379.452 601.972 379.634 601.708 379.76 601.37C379.889 601.032 379.954 600.636 379.954 600.182C379.954 599.728 379.891 599.333 379.765 598.999C379.639 598.664 379.456 598.405 379.218 598.223C378.979 598.041 378.689 597.95 378.348 597.95C378 597.95 377.706 598.044 377.468 598.233C377.229 598.422 377.049 598.684 376.926 599.018C376.803 599.353 376.742 599.741 376.742 600.182C376.742 600.626 376.803 601.019 376.926 601.36C377.052 601.698 377.233 601.963 377.468 602.156C377.706 602.344 378 602.439 378.348 602.439ZM387.043 604V593.818H389.196V602.225H393.561V604H387.043ZM394.947 604V596.364H397.065V604H394.947ZM396.011 595.379C395.696 595.379 395.426 595.275 395.2 595.066C394.978 594.854 394.867 594.6 394.867 594.305C394.867 594.014 394.978 593.763 395.2 593.555C395.426 593.343 395.696 593.237 396.011 593.237C396.326 593.237 396.594 593.343 396.816 593.555C397.041 593.763 397.154 594.014 397.154 594.305C397.154 594.6 397.041 594.854 396.816 595.066C396.594 595.275 396.326 595.379 396.011 595.379ZM400.879 599.585V604H398.761V596.364H400.78V597.711H400.869C401.038 597.267 401.322 596.915 401.719 596.657C402.117 596.395 402.599 596.264 403.166 596.264C403.696 596.264 404.159 596.38 404.553 596.612C404.948 596.844 405.254 597.176 405.473 597.607C405.692 598.034 405.801 598.545 405.801 599.138V604H403.683V599.516C403.686 599.048 403.567 598.684 403.325 598.422C403.083 598.157 402.75 598.024 402.326 598.024C402.041 598.024 401.789 598.085 401.57 598.208C401.355 598.331 401.186 598.51 401.063 598.745C400.944 598.977 400.882 599.257 400.879 599.585ZM409.389 601.803L409.394 599.262H409.702L412.148 596.364H414.58L411.293 600.202H410.791L409.389 601.803ZM407.47 604V593.818H409.588V604H407.47ZM412.243 604L409.996 600.674L411.408 599.178L414.724 604H412.243Z" fill="white"/>
<path d="M439 600H433V598H439V592H441V598H447V600H441V606H439V600Z" fill="white"/>
<g filter="url(#filter7_d_8_129)">
<rect x="273" y="364" width="262" height="55" rx="10" fill="#333333"/>
</g>
<path d="M291.011 387V375.364H298.716V377.392H293.472V380.165H298.205V382.193H293.472V387H291.011ZM300.325 387V378.273H302.746V387H300.325ZM301.541 377.148C301.181 377.148 300.873 377.028 300.615 376.79C300.361 376.547 300.234 376.258 300.234 375.92C300.234 375.587 300.361 375.301 300.615 375.062C300.873 374.82 301.181 374.699 301.541 374.699C301.901 374.699 302.208 374.82 302.462 375.062C302.719 375.301 302.848 375.587 302.848 375.92C302.848 376.258 302.719 376.547 302.462 376.79C302.208 377.028 301.901 377.148 301.541 377.148ZM308.616 390.455C307.832 390.455 307.16 390.347 306.599 390.131C306.043 389.919 305.599 389.629 305.27 389.261C304.94 388.894 304.726 388.481 304.628 388.023L306.866 387.722C306.935 387.896 307.043 388.059 307.19 388.21C307.338 388.362 307.533 388.483 307.776 388.574C308.022 388.669 308.321 388.716 308.673 388.716C309.2 388.716 309.634 388.587 309.974 388.33C310.319 388.076 310.491 387.65 310.491 387.051V385.455H310.389C310.283 385.697 310.124 385.926 309.912 386.142C309.7 386.358 309.427 386.534 309.094 386.67C308.76 386.807 308.363 386.875 307.901 386.875C307.245 386.875 306.649 386.723 306.111 386.42C305.577 386.114 305.151 385.646 304.832 385.017C304.518 384.384 304.361 383.585 304.361 382.619C304.361 381.631 304.522 380.805 304.844 380.142C305.166 379.479 305.594 378.983 306.128 378.653C306.666 378.324 307.255 378.159 307.895 378.159C308.384 378.159 308.793 378.242 309.122 378.409C309.452 378.572 309.717 378.777 309.918 379.023C310.122 379.265 310.279 379.504 310.389 379.739H310.48V378.273H312.884V387.085C312.884 387.828 312.702 388.449 312.338 388.949C311.974 389.449 311.471 389.824 310.827 390.074C310.187 390.328 309.45 390.455 308.616 390.455ZM308.668 385.057C309.058 385.057 309.387 384.96 309.656 384.767C309.929 384.57 310.137 384.29 310.281 383.926C310.429 383.559 310.503 383.119 310.503 382.608C310.503 382.097 310.431 381.653 310.287 381.278C310.143 380.9 309.935 380.606 309.662 380.398C309.389 380.189 309.058 380.085 308.668 380.085C308.27 380.085 307.935 380.193 307.662 380.409C307.389 380.621 307.183 380.917 307.043 381.295C306.902 381.674 306.832 382.112 306.832 382.608C306.832 383.112 306.902 383.547 307.043 383.915C307.187 384.278 307.393 384.561 307.662 384.761C307.935 384.958 308.27 385.057 308.668 385.057ZM314.81 387V378.273H317.116V379.812H317.219C317.401 379.301 317.704 378.898 318.128 378.602C318.552 378.307 319.06 378.159 319.651 378.159C320.249 378.159 320.759 378.309 321.179 378.608C321.599 378.903 321.88 379.305 322.02 379.812H322.111C322.289 379.312 322.611 378.913 323.077 378.614C323.546 378.311 324.101 378.159 324.741 378.159C325.556 378.159 326.217 378.419 326.724 378.938C327.236 379.453 327.491 380.184 327.491 381.131V387H325.077V381.608C325.077 381.123 324.948 380.759 324.69 380.517C324.433 380.275 324.111 380.153 323.724 380.153C323.285 380.153 322.942 380.294 322.696 380.574C322.45 380.85 322.327 381.216 322.327 381.67V387H319.98V381.557C319.98 381.129 319.857 380.788 319.611 380.534C319.368 380.28 319.048 380.153 318.651 380.153C318.382 380.153 318.139 380.222 317.923 380.358C317.711 380.491 317.543 380.678 317.418 380.92C317.293 381.159 317.23 381.439 317.23 381.761V387H314.81ZM331.892 387.165C331.335 387.165 330.839 387.068 330.403 386.875C329.968 386.678 329.623 386.388 329.369 386.006C329.119 385.619 328.994 385.138 328.994 384.562C328.994 384.078 329.083 383.67 329.261 383.341C329.439 383.011 329.682 382.746 329.989 382.545C330.295 382.345 330.644 382.193 331.034 382.091C331.428 381.989 331.841 381.917 332.273 381.875C332.78 381.822 333.189 381.773 333.5 381.727C333.811 381.678 334.036 381.606 334.176 381.511C334.316 381.417 334.386 381.277 334.386 381.091V381.057C334.386 380.697 334.273 380.419 334.045 380.222C333.822 380.025 333.504 379.926 333.091 379.926C332.655 379.926 332.309 380.023 332.051 380.216C331.794 380.405 331.623 380.644 331.54 380.932L329.301 380.75C329.415 380.22 329.638 379.761 329.972 379.375C330.305 378.985 330.735 378.686 331.261 378.477C331.792 378.265 332.405 378.159 333.102 378.159C333.587 378.159 334.051 378.216 334.494 378.33C334.941 378.443 335.337 378.619 335.682 378.858C336.03 379.097 336.305 379.403 336.506 379.778C336.706 380.15 336.807 380.595 336.807 381.114V387H334.511V385.79H334.443C334.303 386.062 334.116 386.303 333.881 386.511C333.646 386.716 333.364 386.877 333.034 386.994C332.705 387.108 332.324 387.165 331.892 387.165ZM332.585 385.494C332.941 385.494 333.256 385.424 333.528 385.284C333.801 385.14 334.015 384.947 334.17 384.705C334.326 384.462 334.403 384.187 334.403 383.881V382.955C334.328 383.004 334.223 383.049 334.091 383.091C333.962 383.129 333.816 383.165 333.653 383.199C333.491 383.229 333.328 383.258 333.165 383.284C333.002 383.307 332.854 383.328 332.722 383.347C332.438 383.388 332.189 383.455 331.977 383.545C331.765 383.636 331.6 383.759 331.483 383.915C331.366 384.066 331.307 384.256 331.307 384.483C331.307 384.812 331.426 385.064 331.665 385.239C331.907 385.409 332.214 385.494 332.585 385.494ZM341.99 377.392V375.364H351.547V377.392H347.984V387H345.553V377.392H341.99ZM355.753 387.17C354.87 387.17 354.107 386.983 353.463 386.608C352.823 386.229 352.329 385.703 351.98 385.028C351.632 384.35 351.457 383.564 351.457 382.67C351.457 381.769 351.632 380.981 351.98 380.307C352.329 379.629 352.823 379.102 353.463 378.727C354.107 378.348 354.87 378.159 355.753 378.159C356.635 378.159 357.397 378.348 358.037 378.727C358.681 379.102 359.177 379.629 359.526 380.307C359.874 380.981 360.048 381.769 360.048 382.67C360.048 383.564 359.874 384.35 359.526 385.028C359.177 385.703 358.681 386.229 358.037 386.608C357.397 386.983 356.635 387.17 355.753 387.17ZM355.764 385.295C356.166 385.295 356.501 385.182 356.77 384.955C357.039 384.723 357.241 384.409 357.378 384.011C357.518 383.614 357.588 383.161 357.588 382.653C357.588 382.146 357.518 381.693 357.378 381.295C357.241 380.898 357.039 380.583 356.77 380.352C356.501 380.121 356.166 380.006 355.764 380.006C355.359 380.006 355.018 380.121 354.741 380.352C354.469 380.583 354.262 380.898 354.122 381.295C353.986 381.693 353.918 382.146 353.918 382.653C353.918 383.161 353.986 383.614 354.122 384.011C354.262 384.409 354.469 384.723 354.741 384.955C355.018 385.182 355.359 385.295 355.764 385.295ZM364.838 387.142C364.175 387.142 363.575 386.972 363.037 386.631C362.503 386.286 362.079 385.78 361.764 385.114C361.454 384.443 361.298 383.621 361.298 382.648C361.298 381.648 361.459 380.816 361.781 380.153C362.103 379.487 362.531 378.989 363.065 378.659C363.603 378.326 364.192 378.159 364.832 378.159C365.321 378.159 365.728 378.242 366.054 378.409C366.384 378.572 366.649 378.777 366.849 379.023C367.054 379.265 367.209 379.504 367.315 379.739H367.389V375.364H369.804V387H367.418V385.602H367.315C367.202 385.845 367.041 386.085 366.832 386.324C366.628 386.559 366.361 386.754 366.031 386.909C365.705 387.064 365.308 387.142 364.838 387.142ZM365.605 385.216C365.995 385.216 366.325 385.11 366.594 384.898C366.866 384.682 367.075 384.381 367.219 383.994C367.366 383.608 367.44 383.155 367.44 382.636C367.44 382.117 367.368 381.667 367.224 381.284C367.08 380.902 366.872 380.606 366.599 380.398C366.327 380.189 365.995 380.085 365.605 380.085C365.207 380.085 364.872 380.193 364.599 380.409C364.327 380.625 364.12 380.924 363.98 381.307C363.84 381.689 363.77 382.133 363.77 382.636C363.77 383.144 363.84 383.593 363.98 383.983C364.124 384.369 364.33 384.672 364.599 384.892C364.872 385.108 365.207 385.216 365.605 385.216ZM375.737 387.17C374.855 387.17 374.091 386.983 373.447 386.608C372.807 386.229 372.313 385.703 371.964 385.028C371.616 384.35 371.442 383.564 371.442 382.67C371.442 381.769 371.616 380.981 371.964 380.307C372.313 379.629 372.807 379.102 373.447 378.727C374.091 378.348 374.855 378.159 375.737 378.159C376.62 378.159 377.381 378.348 378.021 378.727C378.665 379.102 379.161 379.629 379.51 380.307C379.858 380.981 380.033 381.769 380.033 382.67C380.033 383.564 379.858 384.35 379.51 385.028C379.161 385.703 378.665 386.229 378.021 386.608C377.381 386.983 376.62 387.17 375.737 387.17ZM375.749 385.295C376.15 385.295 376.485 385.182 376.754 384.955C377.023 384.723 377.226 384.409 377.362 384.011C377.502 383.614 377.572 383.161 377.572 382.653C377.572 382.146 377.502 381.693 377.362 381.295C377.226 380.898 377.023 380.583 376.754 380.352C376.485 380.121 376.15 380.006 375.749 380.006C375.343 380.006 375.002 380.121 374.726 380.352C374.453 380.583 374.247 380.898 374.107 381.295C373.97 381.693 373.902 382.146 373.902 382.653C373.902 383.161 373.97 383.614 374.107 384.011C374.247 384.409 374.453 384.723 374.726 384.955C375.002 385.182 375.343 385.295 375.749 385.295ZM385.355 387V375.364H387.815V384.972H392.804V387H385.355ZM394.388 387V378.273H396.808V387H394.388ZM395.604 377.148C395.244 377.148 394.935 377.028 394.678 376.79C394.424 376.547 394.297 376.258 394.297 375.92C394.297 375.587 394.424 375.301 394.678 375.062C394.935 374.82 395.244 374.699 395.604 374.699C395.964 374.699 396.27 374.82 396.524 375.062C396.782 375.301 396.911 375.587 396.911 375.92C396.911 376.258 396.782 376.547 396.524 376.79C396.27 377.028 395.964 377.148 395.604 377.148ZM406.009 380.761L403.793 380.898C403.755 380.708 403.673 380.538 403.548 380.386C403.423 380.231 403.259 380.108 403.054 380.017C402.853 379.922 402.613 379.875 402.332 379.875C401.957 379.875 401.641 379.955 401.384 380.114C401.126 380.269 400.997 380.477 400.997 380.739C400.997 380.947 401.08 381.123 401.247 381.267C401.414 381.411 401.7 381.527 402.105 381.614L403.685 381.932C404.533 382.106 405.166 382.386 405.582 382.773C405.999 383.159 406.207 383.667 406.207 384.295C406.207 384.867 406.039 385.369 405.702 385.801C405.368 386.233 404.91 386.57 404.327 386.812C403.747 387.051 403.079 387.17 402.321 387.17C401.166 387.17 400.245 386.93 399.56 386.449C398.878 385.964 398.478 385.305 398.361 384.472L400.741 384.347C400.813 384.699 400.988 384.968 401.264 385.153C401.541 385.335 401.895 385.426 402.327 385.426C402.751 385.426 403.092 385.345 403.349 385.182C403.611 385.015 403.743 384.801 403.747 384.54C403.743 384.32 403.651 384.14 403.469 384C403.287 383.856 403.007 383.746 402.628 383.67L401.116 383.369C400.264 383.199 399.63 382.903 399.213 382.483C398.8 382.062 398.594 381.527 398.594 380.875C398.594 380.314 398.745 379.831 399.048 379.426C399.355 379.021 399.785 378.708 400.338 378.489C400.895 378.269 401.546 378.159 402.293 378.159C403.395 378.159 404.262 378.392 404.895 378.858C405.531 379.324 405.902 379.958 406.009 380.761ZM412.374 378.273V380.091H407.118V378.273H412.374ZM408.311 376.182H410.732V384.318C410.732 384.542 410.766 384.716 410.834 384.841C410.902 384.962 410.997 385.047 411.118 385.097C411.243 385.146 411.387 385.17 411.55 385.17C411.663 385.17 411.777 385.161 411.891 385.142C412.004 385.119 412.091 385.102 412.152 385.091L412.533 386.892C412.411 386.93 412.241 386.973 412.021 387.023C411.802 387.076 411.535 387.108 411.22 387.119C410.637 387.142 410.125 387.064 409.686 386.886C409.25 386.708 408.911 386.432 408.669 386.057C408.427 385.682 408.307 385.208 408.311 384.636V376.182ZM417.256 377.392V375.364H426.812V377.392H423.25V387H420.818V377.392H417.256ZM431.053 387.17C430.155 387.17 429.382 386.989 428.734 386.625C428.09 386.258 427.594 385.739 427.246 385.068C426.897 384.394 426.723 383.597 426.723 382.676C426.723 381.778 426.897 380.991 427.246 380.312C427.594 379.634 428.085 379.106 428.717 378.727C429.354 378.348 430.1 378.159 430.956 378.159C431.532 378.159 432.068 378.252 432.564 378.438C433.064 378.619 433.5 378.894 433.871 379.261C434.246 379.629 434.537 380.091 434.746 380.648C434.954 381.201 435.058 381.848 435.058 382.591V383.256H427.689V381.756H432.78C432.78 381.407 432.704 381.098 432.553 380.83C432.401 380.561 432.191 380.35 431.922 380.199C431.657 380.044 431.348 379.966 430.996 379.966C430.628 379.966 430.303 380.051 430.018 380.222C429.738 380.388 429.518 380.614 429.359 380.898C429.2 381.178 429.119 381.491 429.115 381.835V383.261C429.115 383.693 429.195 384.066 429.354 384.381C429.517 384.695 429.746 384.938 430.041 385.108C430.337 385.278 430.687 385.364 431.092 385.364C431.361 385.364 431.607 385.326 431.831 385.25C432.054 385.174 432.246 385.061 432.405 384.909C432.564 384.758 432.685 384.572 432.768 384.352L435.007 384.5C434.893 385.038 434.661 385.508 434.308 385.909C433.96 386.307 433.509 386.617 432.956 386.841C432.407 387.061 431.772 387.17 431.053 387.17ZM436.638 387V378.273H438.945V379.812H439.047C439.229 379.301 439.532 378.898 439.956 378.602C440.38 378.307 440.888 378.159 441.479 378.159C442.077 378.159 442.587 378.309 443.007 378.608C443.428 378.903 443.708 379.305 443.848 379.812H443.939C444.117 379.312 444.439 378.913 444.905 378.614C445.375 378.311 445.929 378.159 446.57 378.159C447.384 378.159 448.045 378.419 448.553 378.938C449.064 379.453 449.32 380.184 449.32 381.131V387H446.905V381.608C446.905 381.123 446.776 380.759 446.518 380.517C446.261 380.275 445.939 380.153 445.553 380.153C445.113 380.153 444.77 380.294 444.524 380.574C444.278 380.85 444.155 381.216 444.155 381.67V387H441.808V381.557C441.808 381.129 441.685 380.788 441.439 380.534C441.196 380.28 440.876 380.153 440.479 380.153C440.21 380.153 439.967 380.222 439.751 380.358C439.539 380.491 439.371 380.678 439.246 380.92C439.121 381.159 439.058 381.439 439.058 381.761V387H436.638ZM451.232 390.273V378.273H453.618V379.739H453.726C453.832 379.504 453.985 379.265 454.186 379.023C454.391 378.777 454.656 378.572 454.982 378.409C455.311 378.242 455.72 378.159 456.209 378.159C456.845 378.159 457.432 378.326 457.97 378.659C458.508 378.989 458.938 379.487 459.26 380.153C459.582 380.816 459.743 381.648 459.743 382.648C459.743 383.621 459.586 384.443 459.271 385.114C458.961 385.78 458.536 386.286 457.999 386.631C457.464 386.972 456.866 387.142 456.203 387.142C455.733 387.142 455.334 387.064 455.004 386.909C454.679 386.754 454.411 386.559 454.203 386.324C453.995 386.085 453.836 385.845 453.726 385.602H453.652V390.273H451.232ZM453.601 382.636C453.601 383.155 453.673 383.608 453.817 383.994C453.961 384.381 454.169 384.682 454.442 384.898C454.714 385.11 455.046 385.216 455.436 385.216C455.83 385.216 456.163 385.108 456.436 384.892C456.709 384.672 456.915 384.369 457.055 383.983C457.199 383.593 457.271 383.144 457.271 382.636C457.271 382.133 457.201 381.689 457.061 381.307C456.921 380.924 456.714 380.625 456.442 380.409C456.169 380.193 455.834 380.085 455.436 380.085C455.042 380.085 454.709 380.189 454.436 380.398C454.167 380.606 453.961 380.902 453.817 381.284C453.673 381.667 453.601 382.117 453.601 382.636ZM463.777 375.364V387H461.357V375.364H463.777ZM468.205 387.165C467.648 387.165 467.152 387.068 466.716 386.875C466.28 386.678 465.936 386.388 465.682 386.006C465.432 385.619 465.307 385.138 465.307 384.562C465.307 384.078 465.396 383.67 465.574 383.341C465.752 383.011 465.994 382.746 466.301 382.545C466.608 382.345 466.956 382.193 467.347 382.091C467.741 381.989 468.153 381.917 468.585 381.875C469.093 381.822 469.502 381.773 469.812 381.727C470.123 381.678 470.348 381.606 470.489 381.511C470.629 381.417 470.699 381.277 470.699 381.091V381.057C470.699 380.697 470.585 380.419 470.358 380.222C470.134 380.025 469.816 379.926 469.403 379.926C468.968 379.926 468.621 380.023 468.364 380.216C468.106 380.405 467.936 380.644 467.852 380.932L465.614 380.75C465.727 380.22 465.951 379.761 466.284 379.375C466.617 378.985 467.047 378.686 467.574 378.477C468.104 378.265 468.718 378.159 469.415 378.159C469.9 378.159 470.364 378.216 470.807 378.33C471.254 378.443 471.65 378.619 471.994 378.858C472.343 379.097 472.617 379.403 472.818 379.778C473.019 380.15 473.119 380.595 473.119 381.114V387H470.824V385.79H470.756C470.616 386.062 470.428 386.303 470.193 386.511C469.958 386.716 469.676 386.877 469.347 386.994C469.017 387.108 468.636 387.165 468.205 387.165ZM468.898 385.494C469.254 385.494 469.568 385.424 469.841 385.284C470.114 385.14 470.328 384.947 470.483 384.705C470.638 384.462 470.716 384.187 470.716 383.881V382.955C470.64 383.004 470.536 383.049 470.403 383.091C470.275 383.129 470.129 383.165 469.966 383.199C469.803 383.229 469.64 383.258 469.477 383.284C469.314 383.307 469.167 383.328 469.034 383.347C468.75 383.388 468.502 383.455 468.29 383.545C468.078 383.636 467.913 383.759 467.795 383.915C467.678 384.066 467.619 384.256 467.619 384.483C467.619 384.812 467.739 385.064 467.977 385.239C468.22 385.409 468.527 385.494 468.898 385.494ZM479.639 378.273V380.091H474.384V378.273H479.639ZM475.577 376.182H477.997V384.318C477.997 384.542 478.031 384.716 478.099 384.841C478.168 384.962 478.262 385.047 478.384 385.097C478.509 385.146 478.652 385.17 478.815 385.17C478.929 385.17 479.043 385.161 479.156 385.142C479.27 385.119 479.357 385.102 479.418 385.091L479.798 386.892C479.677 386.93 479.507 386.973 479.287 387.023C479.067 387.076 478.8 387.108 478.486 387.119C477.902 387.142 477.391 387.064 476.952 386.886C476.516 386.708 476.177 386.432 475.935 386.057C475.692 385.682 475.573 385.208 475.577 384.636V376.182ZM485.099 387.17C484.202 387.17 483.429 386.989 482.781 386.625C482.137 386.258 481.641 385.739 481.293 385.068C480.944 384.394 480.77 383.597 480.77 382.676C480.77 381.778 480.944 380.991 481.293 380.312C481.641 379.634 482.132 379.106 482.764 378.727C483.401 378.348 484.147 378.159 485.003 378.159C485.579 378.159 486.115 378.252 486.611 378.438C487.111 378.619 487.546 378.894 487.918 379.261C488.293 379.629 488.584 380.091 488.793 380.648C489.001 381.201 489.105 381.848 489.105 382.591V383.256H481.736V381.756H486.827C486.827 381.407 486.751 381.098 486.599 380.83C486.448 380.561 486.238 380.35 485.969 380.199C485.704 380.044 485.395 379.966 485.043 379.966C484.675 379.966 484.349 380.051 484.065 380.222C483.785 380.388 483.565 380.614 483.406 380.898C483.247 381.178 483.166 381.491 483.162 381.835V383.261C483.162 383.693 483.241 384.066 483.401 384.381C483.563 384.695 483.793 384.938 484.088 385.108C484.384 385.278 484.734 385.364 485.139 385.364C485.408 385.364 485.654 385.326 485.878 385.25C486.101 385.174 486.293 385.061 486.452 384.909C486.611 384.758 486.732 384.572 486.815 384.352L489.054 384.5C488.94 385.038 488.707 385.508 488.355 385.909C488.007 386.307 487.556 386.617 487.003 386.841C486.454 387.061 485.819 387.17 485.099 387.17Z" fill="white"/>
<path d="M292.203 407L290.375 401H291.344L292.641 405.594H292.703L293.984 401H294.969L296.234 405.578H296.297L297.594 401H298.563L296.734 407H295.828L294.516 402.391H294.422L293.109 407H292.203ZM301.141 407L299.313 401H300.281L301.578 405.594H301.641L302.922 401H303.906L305.172 405.578H305.234L306.531 401H307.5L305.672 407H304.766L303.453 402.391H303.359L302.047 407H301.141ZM310.078 407L308.25 401H309.219L310.516 405.594H310.578L311.859 401H312.844L314.109 405.578H314.172L315.469 401H316.438L314.609 407H313.703L312.391 402.391H312.297L310.984 407H310.078ZM317.512 407.063C317.319 407.063 317.154 406.993 317.016 406.855C316.878 406.717 316.809 406.552 316.809 406.359C316.809 406.167 316.878 406.001 317.016 405.863C317.154 405.725 317.319 405.656 317.512 405.656C317.704 405.656 317.87 405.725 318.008 405.863C318.146 406.001 318.215 406.167 318.215 406.359C318.215 406.487 318.182 406.604 318.117 406.711C318.055 406.818 317.97 406.904 317.863 406.969C317.759 407.031 317.642 407.063 317.512 407.063ZM322.541 401V401.781H319.307V401H322.541ZM320.275 407V400.172C320.275 399.828 320.356 399.542 320.518 399.312C320.679 399.083 320.889 398.911 321.146 398.797C321.404 398.682 321.676 398.625 321.963 398.625C322.189 398.625 322.374 398.643 322.518 398.68C322.661 398.716 322.768 398.75 322.838 398.781L322.572 399.578C322.525 399.562 322.46 399.543 322.377 399.52C322.296 399.496 322.189 399.484 322.057 399.484C321.752 399.484 321.532 399.561 321.396 399.715C321.264 399.868 321.197 400.094 321.197 400.391V407H320.275ZM323.833 407V401H324.755V407H323.833ZM324.302 400C324.122 400 323.967 399.939 323.837 399.816C323.709 399.694 323.646 399.547 323.646 399.375C323.646 399.203 323.709 399.056 323.837 398.934C323.967 398.811 324.122 398.75 324.302 398.75C324.481 398.75 324.635 398.811 324.763 398.934C324.893 399.056 324.958 399.203 324.958 399.375C324.958 399.547 324.893 399.694 324.763 399.816C324.635 399.939 324.481 400 324.302 400ZM328.865 409.375C328.42 409.375 328.037 409.318 327.717 409.203C327.396 409.091 327.13 408.943 326.916 408.758C326.705 408.576 326.537 408.38 326.412 408.172L327.146 407.656C327.23 407.766 327.335 407.891 327.463 408.031C327.59 408.174 327.765 408.298 327.986 408.402C328.21 408.509 328.503 408.562 328.865 408.562C329.35 408.562 329.749 408.445 330.064 408.211C330.38 407.977 330.537 407.609 330.537 407.109V405.891H330.459C330.391 406 330.295 406.135 330.17 406.297C330.048 406.456 329.87 406.598 329.639 406.723C329.41 406.845 329.1 406.906 328.709 406.906C328.225 406.906 327.79 406.792 327.404 406.563C327.021 406.333 326.718 406 326.494 405.562C326.273 405.125 326.162 404.594 326.162 403.969C326.162 403.354 326.27 402.819 326.486 402.363C326.702 401.905 327.003 401.551 327.389 401.301C327.774 401.048 328.219 400.922 328.725 400.922C329.115 400.922 329.425 400.987 329.654 401.117C329.886 401.245 330.063 401.391 330.186 401.555C330.311 401.716 330.407 401.849 330.475 401.953H330.568V401H331.459V407.172C331.459 407.688 331.342 408.107 331.107 408.43C330.876 408.755 330.563 408.993 330.17 409.145C329.779 409.298 329.344 409.375 328.865 409.375ZM328.834 406.078C329.204 406.078 329.516 405.993 329.771 405.824C330.027 405.655 330.221 405.411 330.354 405.094C330.486 404.776 330.553 404.396 330.553 403.953C330.553 403.521 330.488 403.139 330.357 402.809C330.227 402.478 330.035 402.219 329.779 402.031C329.524 401.844 329.209 401.75 328.834 401.75C328.443 401.75 328.118 401.849 327.857 402.047C327.6 402.245 327.406 402.51 327.275 402.844C327.148 403.177 327.084 403.547 327.084 403.953C327.084 404.37 327.149 404.738 327.279 405.059C327.412 405.376 327.607 405.626 327.865 405.809C328.126 405.988 328.449 406.078 328.834 406.078ZM333.146 407V401H334.037V401.937H334.115C334.24 401.617 334.442 401.368 334.721 401.191C334.999 401.012 335.334 400.922 335.725 400.922C336.12 400.922 336.45 401.012 336.713 401.191C336.979 401.368 337.186 401.617 337.334 401.937H337.396C337.55 401.628 337.781 401.382 338.088 401.199C338.395 401.014 338.764 400.922 339.193 400.922C339.73 400.922 340.169 401.09 340.51 401.426C340.851 401.759 341.021 402.279 341.021 402.984V407H340.1V402.984C340.1 402.542 339.979 402.225 339.736 402.035C339.494 401.845 339.209 401.75 338.881 401.75C338.459 401.75 338.132 401.878 337.9 402.133C337.669 402.385 337.553 402.706 337.553 403.094V407H336.615V402.891C336.615 402.549 336.505 402.275 336.283 402.066C336.062 401.855 335.777 401.75 335.428 401.75C335.188 401.75 334.964 401.814 334.756 401.941C334.55 402.069 334.383 402.246 334.256 402.473C334.131 402.697 334.068 402.956 334.068 403.25V407H333.146ZM344.473 407.141C344.092 407.141 343.747 407.069 343.438 406.926C343.128 406.78 342.882 406.57 342.699 406.297C342.517 406.021 342.426 405.687 342.426 405.297C342.426 404.953 342.493 404.674 342.629 404.461C342.764 404.245 342.945 404.076 343.172 403.953C343.398 403.831 343.648 403.74 343.922 403.68C344.198 403.617 344.475 403.568 344.754 403.531C345.118 403.484 345.414 403.449 345.641 403.426C345.87 403.4 346.036 403.357 346.141 403.297C346.247 403.237 346.301 403.133 346.301 402.984V402.953C346.301 402.568 346.195 402.268 345.984 402.055C345.776 401.841 345.46 401.734 345.035 401.734C344.595 401.734 344.25 401.831 344 402.023C343.75 402.216 343.574 402.422 343.473 402.641L342.598 402.328C342.754 401.964 342.962 401.68 343.223 401.477C343.486 401.271 343.772 401.128 344.082 401.047C344.395 400.964 344.702 400.922 345.004 400.922C345.197 400.922 345.418 400.945 345.668 400.992C345.921 401.036 346.164 401.129 346.398 401.27C346.635 401.41 346.832 401.622 346.988 401.906C347.145 402.19 347.223 402.57 347.223 403.047V407H346.301V406.187H346.254C346.191 406.318 346.087 406.457 345.941 406.605C345.796 406.754 345.602 406.88 345.359 406.984C345.117 407.089 344.822 407.141 344.473 407.141ZM344.613 406.312C344.978 406.312 345.285 406.241 345.535 406.098C345.788 405.954 345.978 405.77 346.105 405.543C346.236 405.316 346.301 405.078 346.301 404.828V403.984C346.262 404.031 346.176 404.074 346.043 404.113C345.913 404.15 345.762 404.182 345.59 404.211C345.421 404.237 345.255 404.26 345.094 404.281C344.935 404.299 344.806 404.315 344.707 404.328C344.467 404.359 344.243 404.41 344.035 404.48C343.829 404.548 343.663 404.651 343.535 404.789C343.41 404.924 343.348 405.109 343.348 405.344C343.348 405.664 343.466 405.906 343.703 406.07C343.943 406.232 344.246 406.312 344.613 406.312ZM349.577 407.063C349.384 407.063 349.219 406.993 349.081 406.855C348.943 406.717 348.874 406.552 348.874 406.359C348.874 406.167 348.943 406.001 349.081 405.863C349.219 405.725 349.384 405.656 349.577 405.656C349.77 405.656 349.935 405.725 350.073 405.863C350.211 406.001 350.28 406.167 350.28 406.359C350.28 406.487 350.248 406.604 350.183 406.711C350.12 406.818 350.035 406.904 349.929 406.969C349.825 407.031 349.707 407.063 349.577 407.063ZM354.372 407.125C353.81 407.125 353.325 406.992 352.919 406.727C352.513 406.461 352.2 406.095 351.981 405.629C351.763 405.163 351.653 404.63 351.653 404.031C351.653 403.422 351.765 402.884 351.989 402.418C352.216 401.949 352.531 401.583 352.935 401.32C353.341 401.055 353.815 400.922 354.356 400.922C354.778 400.922 355.159 401 355.497 401.156C355.836 401.312 356.113 401.531 356.329 401.812C356.545 402.094 356.679 402.422 356.731 402.797H355.81C355.739 402.523 355.583 402.281 355.341 402.07C355.101 401.857 354.778 401.75 354.372 401.75C354.013 401.75 353.698 401.844 353.427 402.031C353.159 402.216 352.949 402.478 352.798 402.816C352.649 403.152 352.575 403.547 352.575 404C352.575 404.464 352.648 404.867 352.794 405.211C352.942 405.555 353.151 405.822 353.419 406.012C353.69 406.202 354.007 406.297 354.372 406.297C354.612 406.297 354.829 406.255 355.024 406.172C355.22 406.089 355.385 405.969 355.521 405.812C355.656 405.656 355.752 405.469 355.81 405.25H356.731C356.679 405.604 356.55 405.923 356.345 406.207C356.142 406.488 355.872 406.712 355.536 406.879C355.203 407.043 354.815 407.125 354.372 407.125ZM360.517 407.125C359.975 407.125 359.5 406.996 359.091 406.738C358.685 406.48 358.367 406.12 358.138 405.656C357.911 405.193 357.798 404.651 357.798 404.031C357.798 403.406 357.911 402.861 358.138 402.395C358.367 401.928 358.685 401.566 359.091 401.309C359.5 401.051 359.975 400.922 360.517 400.922C361.058 400.922 361.532 401.051 361.938 401.309C362.347 401.566 362.665 401.928 362.892 402.395C363.121 402.861 363.235 403.406 363.235 404.031C363.235 404.651 363.121 405.193 362.892 405.656C362.665 406.12 362.347 406.48 361.938 406.738C361.532 406.996 361.058 407.125 360.517 407.125ZM360.517 406.297C360.928 406.297 361.267 406.191 361.532 405.98C361.798 405.77 361.994 405.492 362.122 405.148C362.25 404.805 362.313 404.432 362.313 404.031C362.313 403.63 362.25 403.257 362.122 402.91C361.994 402.564 361.798 402.284 361.532 402.07C361.267 401.857 360.928 401.75 360.517 401.75C360.105 401.75 359.767 401.857 359.501 402.07C359.235 402.284 359.039 402.564 358.911 402.91C358.784 403.257 358.72 403.63 358.72 404.031C358.72 404.432 358.784 404.805 358.911 405.148C359.039 405.492 359.235 405.77 359.501 405.98C359.767 406.191 360.105 406.297 360.517 406.297ZM364.643 407V401H365.533V401.937H365.611C365.736 401.617 365.938 401.368 366.217 401.191C366.495 401.012 366.83 400.922 367.221 400.922C367.617 400.922 367.946 401.012 368.209 401.191C368.475 401.368 368.682 401.617 368.83 401.937H368.893C369.046 401.628 369.277 401.382 369.584 401.199C369.891 401.014 370.26 400.922 370.689 400.922C371.226 400.922 371.665 401.09 372.006 401.426C372.347 401.759 372.518 402.279 372.518 402.984V407H371.596V402.984C371.596 402.542 371.475 402.225 371.232 402.035C370.99 401.845 370.705 401.75 370.377 401.75C369.955 401.75 369.628 401.878 369.396 402.133C369.165 402.385 369.049 402.706 369.049 403.094V407H368.111V402.891C368.111 402.549 368.001 402.275 367.779 402.066C367.558 401.855 367.273 401.75 366.924 401.75C366.684 401.75 366.46 401.814 366.252 401.941C366.046 402.069 365.88 402.246 365.752 402.473C365.627 402.697 365.564 402.956 365.564 403.25V407H364.643ZM377.031 398.625L374.453 408.203H373.609L376.188 398.625H377.031ZM380.562 407.125C379.999 407.125 379.515 406.992 379.108 406.727C378.702 406.461 378.39 406.095 378.171 405.629C377.952 405.163 377.843 404.63 377.843 404.031C377.843 403.422 377.955 402.884 378.179 402.418C378.405 401.949 378.72 401.583 379.124 401.32C379.53 401.055 380.004 400.922 380.546 400.922C380.968 400.922 381.348 401 381.687 401.156C382.025 401.312 382.302 401.531 382.519 401.812C382.735 402.094 382.869 402.422 382.921 402.797H381.999C381.929 402.523 381.772 402.281 381.53 402.07C381.291 401.857 380.968 401.75 380.562 401.75C380.202 401.75 379.887 401.844 379.616 402.031C379.348 402.216 379.138 402.478 378.987 402.816C378.839 403.152 378.765 403.547 378.765 404C378.765 404.464 378.838 404.867 378.983 405.211C379.132 405.555 379.34 405.822 379.608 406.012C379.879 406.202 380.197 406.297 380.562 406.297C380.801 406.297 381.019 406.255 381.214 406.172C381.409 406.089 381.575 405.969 381.71 405.812C381.845 405.656 381.942 405.469 381.999 405.25H382.921C382.869 405.604 382.74 405.923 382.534 406.207C382.331 406.488 382.062 406.712 381.726 406.879C381.392 407.043 381.004 407.125 380.562 407.125ZM386.706 407.125C386.164 407.125 385.689 406.996 385.28 406.738C384.874 406.48 384.556 406.12 384.327 405.656C384.101 405.193 383.987 404.651 383.987 404.031C383.987 403.406 384.101 402.861 384.327 402.395C384.556 401.928 384.874 401.566 385.28 401.309C385.689 401.051 386.164 400.922 386.706 400.922C387.248 400.922 387.722 401.051 388.128 401.309C388.537 401.566 388.854 401.928 389.081 402.395C389.31 402.861 389.425 403.406 389.425 404.031C389.425 404.651 389.31 405.193 389.081 405.656C388.854 406.12 388.537 406.48 388.128 406.738C387.722 406.996 387.248 407.125 386.706 407.125ZM386.706 406.297C387.118 406.297 387.456 406.191 387.722 405.98C387.987 405.77 388.184 405.492 388.312 405.148C388.439 404.805 388.503 404.432 388.503 404.031C388.503 403.63 388.439 403.257 388.312 402.91C388.184 402.564 387.987 402.284 387.722 402.07C387.456 401.857 387.118 401.75 386.706 401.75C386.295 401.75 385.956 401.857 385.69 402.07C385.425 402.284 385.228 402.564 385.101 402.91C384.973 403.257 384.909 403.63 384.909 404.031C384.909 404.432 384.973 404.805 385.101 405.148C385.228 405.492 385.425 405.77 385.69 405.98C385.956 406.191 386.295 406.297 386.706 406.297ZM390.832 407V401H391.723V401.937H391.801C391.926 401.617 392.128 401.368 392.406 401.191C392.685 401.012 393.02 400.922 393.41 400.922C393.806 400.922 394.135 401.012 394.398 401.191C394.664 401.368 394.871 401.617 395.02 401.937H395.082C395.236 401.628 395.466 401.382 395.773 401.199C396.081 401.014 396.449 400.922 396.879 400.922C397.415 400.922 397.854 401.09 398.195 401.426C398.536 401.759 398.707 402.279 398.707 402.984V407H397.785V402.984C397.785 402.542 397.664 402.225 397.422 402.035C397.18 401.845 396.895 401.75 396.566 401.75C396.145 401.75 395.818 401.878 395.586 402.133C395.354 402.385 395.238 402.706 395.238 403.094V407H394.301V402.891C394.301 402.549 394.19 402.275 393.969 402.066C393.747 401.855 393.462 401.75 393.113 401.75C392.874 401.75 392.65 401.814 392.441 401.941C392.236 402.069 392.069 402.246 391.941 402.473C391.816 402.697 391.754 402.956 391.754 403.25V407H390.832ZM400.393 407V401H401.283V401.937H401.361C401.486 401.617 401.688 401.368 401.967 401.191C402.245 401.012 402.58 400.922 402.971 400.922C403.367 400.922 403.696 401.012 403.959 401.191C404.225 401.368 404.432 401.617 404.58 401.937H404.643C404.796 401.628 405.027 401.382 405.334 401.199C405.641 401.014 406.01 400.922 406.439 400.922C406.976 400.922 407.415 401.09 407.756 401.426C408.097 401.759 408.268 402.279 408.268 402.984V407H407.346V402.984C407.346 402.542 407.225 402.225 406.982 402.035C406.74 401.845 406.455 401.75 406.127 401.75C405.705 401.75 405.378 401.878 405.146 402.133C404.915 402.385 404.799 402.706 404.799 403.094V407H403.861V402.891C403.861 402.549 403.751 402.275 403.529 402.066C403.308 401.855 403.023 401.75 402.674 401.75C402.434 401.75 402.21 401.814 402.002 401.941C401.796 402.069 401.63 402.246 401.502 402.473C401.377 402.697 401.314 402.956 401.314 403.25V407H400.393ZM413.734 404.547V401H414.656V407H413.734V405.984H413.672C413.531 406.289 413.313 406.548 413.016 406.762C412.719 406.973 412.344 407.078 411.891 407.078C411.516 407.078 411.182 406.996 410.891 406.832C410.599 406.665 410.37 406.415 410.203 406.082C410.036 405.746 409.953 405.323 409.953 404.812V401H410.875V404.75C410.875 405.187 410.997 405.536 411.242 405.797C411.49 406.057 411.805 406.187 412.188 406.187C412.417 406.187 412.65 406.129 412.887 406.012C413.126 405.895 413.327 405.715 413.488 405.473C413.652 405.23 413.734 404.922 413.734 404.547ZM417.267 403.391V407H416.345V401H417.235V401.937H417.313C417.454 401.633 417.668 401.388 417.954 401.203C418.241 401.016 418.61 400.922 419.063 400.922C419.47 400.922 419.825 401.005 420.13 401.172C420.435 401.336 420.672 401.586 420.841 401.922C421.01 402.255 421.095 402.677 421.095 403.188V407H420.173V403.25C420.173 402.779 420.05 402.411 419.806 402.148C419.561 401.883 419.225 401.75 418.798 401.75C418.504 401.75 418.241 401.814 418.009 401.941C417.78 402.069 417.599 402.255 417.466 402.5C417.333 402.745 417.267 403.042 417.267 403.391ZM422.779 407V401H423.701V407H422.779ZM423.248 400C423.068 400 422.913 399.939 422.783 399.816C422.656 399.694 422.592 399.547 422.592 399.375C422.592 399.203 422.656 399.056 422.783 398.934C422.913 398.811 423.068 398.75 423.248 398.75C423.428 398.75 423.581 398.811 423.709 398.934C423.839 399.056 423.904 399.203 423.904 399.375C423.904 399.547 423.839 399.694 423.709 399.816C423.581 399.939 423.428 400 423.248 400ZM427.999 401V401.781H424.89V401H427.999ZM425.796 399.562H426.718V405.281C426.718 405.542 426.756 405.737 426.831 405.867C426.909 405.995 427.008 406.081 427.128 406.125C427.25 406.167 427.379 406.187 427.515 406.187C427.616 406.187 427.7 406.182 427.765 406.172C427.83 406.159 427.882 406.148 427.921 406.141L428.108 406.969C428.046 406.992 427.959 407.016 427.847 407.039C427.735 407.065 427.593 407.078 427.421 407.078C427.16 407.078 426.905 407.022 426.655 406.91C426.408 406.798 426.202 406.628 426.038 406.398C425.877 406.169 425.796 405.88 425.796 405.531V399.562ZM429.979 409.25C429.823 409.25 429.684 409.237 429.562 409.211C429.439 409.188 429.354 409.164 429.308 409.141L429.542 408.328C429.766 408.385 429.964 408.406 430.136 408.391C430.308 408.375 430.46 408.298 430.593 408.16C430.728 408.025 430.852 407.805 430.964 407.5L431.136 407.031L428.917 401H429.917L431.573 405.781H431.636L433.292 401H434.292L431.745 407.875C431.631 408.185 431.489 408.441 431.319 408.645C431.15 408.85 430.953 409.003 430.729 409.102C430.508 409.201 430.258 409.25 429.979 409.25ZM437.714 398.625L435.136 408.203H434.292L436.87 398.625H437.714ZM441.479 401V401.781H438.244V401H441.479ZM439.213 407V400.172C439.213 399.828 439.294 399.542 439.455 399.312C439.617 399.083 439.826 398.911 440.084 398.797C440.342 398.682 440.614 398.625 440.9 398.625C441.127 398.625 441.312 398.643 441.455 398.68C441.598 398.716 441.705 398.75 441.775 398.781L441.51 399.578C441.463 399.562 441.398 399.543 441.314 399.52C441.234 399.496 441.127 399.484 440.994 399.484C440.689 399.484 440.469 399.561 440.334 399.715C440.201 399.868 440.135 400.094 440.135 400.391V407H439.213ZM442.771 407V401H443.692V407H442.771ZM443.239 400C443.06 400 442.905 399.939 442.774 399.816C442.647 399.694 442.583 399.547 442.583 399.375C442.583 399.203 442.647 399.056 442.774 398.934C442.905 398.811 443.06 398.75 443.239 398.75C443.419 398.75 443.573 398.811 443.7 398.934C443.83 399.056 443.896 399.203 443.896 399.375C443.896 399.547 443.83 399.694 443.7 399.816C443.573 399.939 443.419 400 443.239 400ZM446.053 407.063C445.86 407.063 445.695 406.993 445.557 406.855C445.419 406.717 445.35 406.552 445.35 406.359C445.35 406.167 445.419 406.001 445.557 405.863C445.695 405.725 445.86 405.656 446.053 405.656C446.245 405.656 446.411 405.725 446.549 405.863C446.687 406.001 446.756 406.167 446.756 406.359C446.756 406.487 446.723 406.604 446.658 406.711C446.596 406.818 446.511 406.904 446.404 406.969C446.3 407.031 446.183 407.063 446.053 407.063ZM449.082 407.063C448.889 407.063 448.724 406.993 448.586 406.855C448.448 406.717 448.379 406.552 448.379 406.359C448.379 406.167 448.448 406.001 448.586 405.863C448.724 405.725 448.889 405.656 449.082 405.656C449.275 405.656 449.44 405.725 449.578 405.863C449.716 406.001 449.785 406.167 449.785 406.359C449.785 406.487 449.753 406.604 449.687 406.711C449.625 406.818 449.54 406.904 449.434 406.969C449.329 407.031 449.212 407.063 449.082 407.063ZM452.111 407.063C451.919 407.063 451.753 406.993 451.615 406.855C451.477 406.717 451.408 406.552 451.408 406.359C451.408 406.167 451.477 406.001 451.615 405.863C451.753 405.725 451.919 405.656 452.111 405.656C452.304 405.656 452.469 405.725 452.607 405.863C452.745 406.001 452.814 406.167 452.814 406.359C452.814 406.487 452.782 406.604 452.717 406.711C452.654 406.818 452.57 406.904 452.463 406.969C452.359 407.031 452.242 407.063 452.111 407.063ZM455.141 407.063C454.948 407.063 454.783 406.993 454.645 406.855C454.507 406.717 454.438 406.552 454.438 406.359C454.438 406.167 454.507 406.001 454.645 405.863C454.783 405.725 454.948 405.656 455.141 405.656C455.333 405.656 455.499 405.725 455.637 405.863C455.775 406.001 455.844 406.167 455.844 406.359C455.844 406.487 455.811 406.604 455.746 406.711C455.684 406.818 455.599 406.904 455.492 406.969C455.388 407.031 455.271 407.063 455.141 407.063Z" fill="white"/>
<path d="M518 337C517.45 337 516.979 336.804 516.587 336.413C516.196 336.021 516 335.55 516 335V322H515V320H520V319H526V320H531V322H530V335C530 335.55 529.804 336.021 529.413 336.413C529.021 336.804 528.55 337 528 337H518ZM520 333H522V324H520V333ZM524 333H526V324H524V333Z" fill="#F31C1C"/>
<path d="M283.249 320.455H286.324V329.901C286.324 330.961 286.071 331.889 285.564 332.685C285.062 333.48 284.359 334.1 283.455 334.545C282.55 334.986 281.497 335.206 280.294 335.206C279.087 335.206 278.031 334.986 277.126 334.545C276.222 334.1 275.519 333.48 275.017 332.685C274.515 331.889 274.264 330.961 274.264 329.901V320.455H277.339V329.638C277.339 330.192 277.46 330.684 277.702 331.115C277.948 331.546 278.294 331.884 278.739 332.131C279.184 332.377 279.702 332.5 280.294 332.5C280.891 332.5 281.409 332.377 281.849 332.131C282.295 331.884 282.638 331.546 282.879 331.115C283.125 330.684 283.249 330.192 283.249 329.638V320.455ZM291.929 320.455V335H288.854V320.455H291.929ZM300.738 319.773L296.05 337.188H293.444L298.131 319.773H300.738ZM311.237 320.455H314.312V329.901C314.312 330.961 314.059 331.889 313.552 332.685C313.05 333.48 312.347 334.1 311.443 334.545C310.538 334.986 309.485 335.206 308.282 335.206C307.075 335.206 306.019 334.986 305.115 334.545C304.21 334.1 303.507 333.48 303.005 332.685C302.503 331.889 302.252 330.961 302.252 329.901V320.455H305.328V329.638C305.328 330.192 305.449 330.684 305.69 331.115C305.936 331.546 306.282 331.884 306.727 332.131C307.172 332.377 307.69 332.5 308.282 332.5C308.879 332.5 309.397 332.377 309.838 332.131C310.283 331.884 310.626 331.546 310.868 331.115C311.114 330.684 311.237 330.192 311.237 329.638V320.455ZM319.726 320.455L322.659 325.412H322.773L325.72 320.455H329.193L324.754 327.727L329.293 335H325.756L322.773 330.036H322.659L319.676 335H316.153L320.706 327.727L316.239 320.455H319.726Z" fill="#1447E6"/>
<defs>
<filter id="filter0_d_8_129" x="0.5" y="0.5" width="350" height="384" filterUnits="userSpaceOnUse" color-interpolation-filters="sRGB">
<feFlood flood-opacity="0" result="BackgroundImageFix"/>
<feColorMatrix in="SourceAlpha" type="matrix" values="0 0 0 0 0 0 0 0 0 0 0 0 0 0 0 0 0 0 127 0" result="hardAlpha"/>
<feOffset dx="3" dy="5"/>
<feGaussianBlur stdDeviation="8.25"/>
<feComposite in2="hardAlpha" operator="out"/>
<feColorMatrix type="matrix" values="0 0 0 0 0 0 0 0 0 0 0 0 0 0 0 0 0 0 0.25 0"/>
<feBlend mode="normal" in2="BackgroundImageFix" result="effect1_dropShadow_8_129"/>
<feBlend mode="normal" in="SourceGraphic" in2="effect1_dropShadow_8_129" result="shape"/>
</filter>
<filter id="filter1_d_8_129" x="96.5" y="287.5" width="162" height="69" filterUnits="userSpaceOnUse" color-interpolation-filters="sRGB">
<feFlood flood-opacity="0" result="BackgroundImageFix"/>
<feColorMatrix in="SourceAlpha" type="matrix" values="0 0 0 0 0 0 0 0 0 0 0 0 0 0 0 0 0 0 127 0" result="hardAlpha"/>
<feOffset dx="3" dy="5"/>
<feGaussianBlur stdDeviation="8.25"/>
<feComposite in2="hardAlpha" operator="out"/>
<feColorMatrix type="matrix" values="0 0 0 0 0 0 0 0 0 0 0 0 0 0 0 0 0 0 0.25 0"/>
<feBlend mode="normal" in2="BackgroundImageFix" result="effect1_dropShadow_8_129"/>
<feBlend mode="normal" in="SourceGraphic" in2="effect1_dropShadow_8_129" result="shape"/>
</filter>
<filter id="filter2_d_8_129" x="30.5" y="208.5" width="295" height="83" filterUnits="userSpaceOnUse" color-interpolation-filters="sRGB">
<feFlood flood-opacity="0" result="BackgroundImageFix"/>
<feColorMatrix in="SourceAlpha" type="matrix" values="0 0 0 0 0 0 0 0 0 0 0 0 0 0 0 0 0 0 127 0" result="hardAlpha"/>
<feOffset dx="3" dy="5"/>
<feGaussianBlur stdDeviation="8.25"/>
<feComposite in2="hardAlpha" operator="out"/>
<feColorMatrix type="matrix" values="0 0 0 0 0 0 0 0 0 0 0 0 0 0 0 0 0 0 0.25 0"/>
<feBlend mode="normal" in2="BackgroundImageFix" result="effect1_dropShadow_8_129"/>
<feBlend mode="normal" in="SourceGraphic" in2="effect1_dropShadow_8_129" result="shape"/>
</filter>
<filter id="filter3_d_8_129" x="30.5" y="139.5" width="295" height="83" filterUnits="userSpaceOnUse" color-interpolation-filters="sRGB">
<feFlood flood-opacity="0" result="BackgroundImageFix"/>
<feColorMatrix in="SourceAlpha" type="matrix" values="0 0 0 0 0 0 0 0 0 0 0 0 0 0 0 0 0 0 127 0" result="hardAlpha"/>
<feOffset dx="3" dy="5"/>
<feGaussianBlur stdDeviation="8.25"/>
<feComposite in2="hardAlpha" operator="out"/>
<feColorMatrix type="matrix" values="0 0 0 0 0 0 0 0 0 0 0 0 0 0 0 0 0 0 0.25 0"/>
<feBlend mode="normal" in2="BackgroundImageFix" result="effect1_dropShadow_8_129"/>
<feBlend mode="normal" in="SourceGraphic" in2="effect1_dropShadow_8_129" result="shape"/>
</filter>
<filter id="filter4_d_8_129" x="30.5" y="70.5" width="295" height="83" filterUnits="userSpaceOnUse" color-interpolation-filters="sRGB">
<feFlood flood-opacity="0" result="BackgroundImageFix"/>
<feColorMatrix in="SourceAlpha" type="matrix" values="0 0 0 0 0 0 0 0 0 0 0 0 0 0 0 0 0 0 127 0" result="hardAlpha"/>
<feOffset dx="3" dy="5"/>
<feGaussianBlur stdDeviation="8.25"/>
<feComposite in2="hardAlpha" operator="out"/>
<feColorMatrix type="matrix" values="0 0 0 0 0 0 0 0 0 0 0 0 0 0 0 0 0 0 0.25 0"/>
<feBlend mode="normal" in2="BackgroundImageFix" result="effect1_dropShadow_8_129"/>
<feBlend mode="normal" in="SourceGraphic" in2="effect1_dropShadow_8_129" result="shape"/>
</filter>
<filter id="filter5_d_8_129" x="231.5" y="282.5" width="350" height="384" filterUnits="userSpaceOnUse" color-interpolation-filters="sRGB">
<feFlood flood-opacity="0" result="BackgroundImageFix"/>
<feColorMatrix in="SourceAlpha" type="matrix" values="0 0 0 0 0 0 0 0 0 0 0 0 0 0 0 0 0 0 127 0" result="hardAlpha"/>
<feOffset dx="3" dy="5"/>
<feGaussianBlur stdDeviation="8.25"/>
<feComposite in2="hardAlpha" operator="out"/>
<feColorMatrix type="matrix" values="0 0 0 0 0 0 0 0 0 0 0 0 0 0 0 0 0 0 0.25 0"/>
<feBlend mode="normal" in2="BackgroundImageFix" result="effect1_dropShadow_8_129"/>
<feBlend mode="normal" in="SourceGraphic" in2="effect1_dropShadow_8_129" result="shape"/>
</filter>
<filter id="filter6_d_8_129" x="325.5" y="569.5" width="162" height="69" filterUnits="userSpaceOnUse" color-interpolation-filters="sRGB">
<feFlood flood-opacity="0" result="BackgroundImageFix"/>
<feColorMatrix in="SourceAlpha" type="matrix" values="0 0 0 0 0 0 0 0 0 0 0 0 0 0 0 0 0 0 127 0" result="hardAlpha"/>
<feOffset dx="3" dy="5"/>
<feGaussianBlur stdDeviation="8.25"/>
<feComposite in2="hardAlpha" operator="out"/>
<feColorMatrix type="matrix" values="0 0 0 0 0 0 0 0 0 0 0 0 0 0 0 0 0 0 0.25 0"/>
<feBlend mode="normal" in2="BackgroundImageFix" result="effect1_dropShadow_8_129"/>
<feBlend mode="normal" in="SourceGraphic" in2="effect1_dropShadow_8_129" result="shape"/>
</filter>
<filter id="filter7_d_8_129" x="259.5" y="352.5" width="295" height="88" filterUnits="userSpaceOnUse" color-interpolation-filters="sRGB">
<feFlood flood-opacity="0" result="BackgroundImageFix"/>
<feColorMatrix in="SourceAlpha" type="matrix" values="0 0 0 0 0 0 0 0 0 0 0 0 0 0 0 0 0 0 127 0" result="hardAlpha"/>
<feOffset dx="3" dy="5"/>
<feGaussianBlur stdDeviation="8.25"/>
<feComposite in2="hardAlpha" operator="out"/>
<feColorMatrix type="matrix" values="0 0 0 0 0 0 0 0 0 0 0 0 0 0 0 0 0 0 0.25 0"/>
<feBlend mode="normal" in2="BackgroundImageFix" result="effect1_dropShadow_8_129"/>
<feBlend mode="normal" in="SourceGraphic" in2="effect1_dropShadow_8_129" result="shape"/>
</filter>
</defs>
</svg>
